<svg xmlns="http://www.w3.org/2000/svg" viewBox="0 0 100 100"><title>add_i100</title><path d="M56.9,50a2.4,2.4,0,0,0,0,4.8c1.8,0,3-1.2,3-2.4A2.8,2.8,0,0,0,56.9,50Z" fill="#96938e"/><path d="M49.1,38.5a3,3,0,1,0,0-6c-1.8,0-3.6,1.2-3.6,3S47.3,38.5,49.1,38.5Z" fill="#96938e"/><path d="M32.2,32.5c-1.8,0-3.6,1.2-3.6,3s1.8,3,3.6,3a3,3,0,0,0,0-6Z" fill="#96938e"/><path d="M50,0a50,50,0,1,0,50,50A50,50,0,0,0,50,0ZM40.1,63.3a41.4,41.4,0,0,1-8.4-1.2l-8.4,4.2L25.6,59c-6-4.2-9.6-9.7-9.6-16.3,0-11.5,10.8-20.5,24.1-20.5s22.2,7.2,24.3,16.9H62c-11.4,0-20.5,8.5-20.5,19.1a17.9,17.9,0,0,0,.7,5Zm35.5,8.4,1.8,6-6.6-3.6a30.3,30.3,0,0,1-7.2,1.2c-11.5,0-20.5-7.8-20.5-17.5s9-17.5,20.5-17.5S84,48.2,84,57.8C84,63.3,80.4,68.1,75.6,71.7Z" fill="#96938e"/><path d="M70.2,50a2.4,2.4,0,0,0,0,4.8,2.8,2.8,0,0,0,3-2.4A2.8,2.8,0,0,0,70.2,50Z" fill="#96938e"/></svg>