<svg xmlns="http://www.w3.org/2000/svg" viewBox="0 0 100 100"><title>add_i200</title><path d="M35,79.4c-10.8,1.3-16.7-4.3-16.7-4.3-8.3-7.3-4.1-16.8-4.1-16.8,2.3-7.2,9.8-9,9.8-9C37.4,45.8,57,53.5,57,53.5s4-9.2,4-9.2.6-1.9.7-2.3l-33.2-.2V38.5H44.7V32.1H24.8V28.5H44.8V20.1a1.2,1.2,0,0,1,.7-1.1,5.1,5.1,0,0,1,1.7-.5H55V28.6H76.7v3.6H55v6.4H72.6A51.5,51.5,0,0,1,70.1,47c-1.8,4.7-4.3,9.5-4.3,9.5L97,67.1a50.1,50.1,0,1,0-6,11.5L60.2,64.9C48.1,79,35,79.4,35,79.4Z" fill="#96938e"/><path d="M28,54.3s-10.1.9-11,8.5S28,73.5,28,73.5C44.9,75,52.3,60.8,52.3,60.8A44.8,44.8,0,0,0,28,54.3Z" fill="#96938e"/><path d="M83.6,73.5h0a32.3,32.3,0,0,0,4.9-9.5h0A40.9,40.9,0,0,1,83.6,73.5Z" fill="#fff"/></svg>