<svg xmlns="http://www.w3.org/2000/svg" xmlns:xlink="http://www.w3.org/1999/xlink" viewBox="0 0 40 40"><defs><linearGradient id="a" x1="20" y1="-2.24" x2="20" y2="40.43" gradientUnits="userSpaceOnUse"><stop offset="0" stop-color="#fff2c4"/><stop offset="0.45" stop-color="#ffe489"/><stop offset="1" stop-color="#bf9e30"/></linearGradient></defs><title>back01</title><path d="M28.1,18.1H16.8l2.6-2.4h0A1.9,1.9,0,1,0,16.9,13h0l-6.3,5.6h0a1.9,1.9,0,0,0,0,2.8h0L16.9,27h0a1.9,1.9,0,1,0,2.5-2.8h0l-2.6-2.4H28.1a1.9,1.9,0,0,0,0-3.7ZM20,0A20,20,0,1,0,40,20,20,20,0,0,0,20,0Zm0,36.2A16.2,16.2,0,1,1,36.2,20,16.3,16.3,0,0,1,20,36.2Z" fill-rule="evenodd" fill="url(#a)"/></svg>