<svg xmlns="http://www.w3.org/2000/svg" xmlns:xlink="http://www.w3.org/1999/xlink" viewBox="0 0 120 120"><defs><linearGradient id="a" x1="58.57" y1="22.08" x2="58.57" y2="96.09" gradientUnits="userSpaceOnUse"><stop offset="0" stop-color="#fff2c4"/><stop offset="0.45" stop-color="#ffe489"/><stop offset="1" stop-color="#bf9e30"/></linearGradient><linearGradient id="b" x1="88.35" y1="22.08" x2="88.35" y2="96.08" xlink:href="#a"/></defs><title>cre_i2201</title><rect width="120" height="120" fill="#fff" opacity="0"/><path d="M28.8,71.7l16.8-6.5L49.8,62l8.7,17.5L66.3,62l4.3,3.2c2.7.9,5.3,1.9,7.9,3H73.3a2.2,2.2,0,0,0-2.2,2.2V82.5a2.2,2.2,0,0,0,2.2,2.2h6.8v6.8a2.2,2.2,0,0,0,2.2,2.2h8.8c0,1.1,0,2.2,0,3.4H26.2c-.4-12.2.4-20.9,2.7-25.3ZM46,49.9c-.5-5.3-.6-9,1-14.3,6.1-3.7,13.6,2.3,22.6.2a54.6,54.6,0,0,1,.9,14.3s3.5-3,4-5.6-.4-14-1.7-15.9c-4.9-7.3-23.2-7.6-28.6-1.3-1.5,1.7-3.2,17.4-1.6,19.4A11.4,11.4,0,0,0,46,49.9Z" fill-rule="evenodd" fill="url(#a)"/><polygon points="75.7 72.8 84.7 72.8 84.7 63.8 92 63.8 92 72.8 101 72.8 101 80 92 80 92 89 84.7 89 84.7 80 75.7 80 75.7 72.8" fill-rule="evenodd" fill="url(#b)"/></svg>