<svg xmlns="http://www.w3.org/2000/svg" xmlns:xlink="http://www.w3.org/1999/xlink" viewBox="0 0 40 40"><defs><linearGradient id="a" x1="16.63" y1="0.85" x2="16.63" y2="38.52" gradientUnits="userSpaceOnUse"><stop offset="0" stop-color="#a2a2a2"/><stop offset="1" stop-color="#616161"/></linearGradient><linearGradient id="b" x1="28.06" y1="0.85" x2="28.06" y2="38.52" xlink:href="#a"/><linearGradient id="c" x1="31.5" y1="0.85" x2="31.5" y2="38.52" xlink:href="#a"/></defs><title>cre_i301</title><rect width="40" height="40" fill="#fff" opacity="0"/><path d="M30.3,19l-3.5-3.5h0l-2.4-2.4h0L21.1,9.9,6.6,24.2a1.3,1.3,0,0,0-.5.7L3.1,35.3A1.3,1.3,0,0,0,4.3,37h.4l10.4-3.1a1.3,1.3,0,0,0,.7-.5ZM12.5,27.5l.2,3.3.8.8L7.9,33.3,6.7,32.1l1.6-5.6.7.7Z" fill="url(#a)"/><polygon points="31.6 17.6 22.4 8.4 24.5 6.5 33.7 15.6 31.6 17.6" fill="url(#b)"/><path d="M34.8,14,26,5.3l1.3-1.4a3.1,3.1,0,0,1,4.4,0l4.4,4.4a3.1,3.1,0,0,1,0,4.4Z" fill="url(#c)"/></svg>