<svg xmlns="http://www.w3.org/2000/svg" xmlns:xlink="http://www.w3.org/1999/xlink" viewBox="0 0 120 120"><defs><linearGradient id="a" x1="52.61" y1="24.48" x2="52.61" y2="97.82" gradientUnits="userSpaceOnUse"><stop offset="0" stop-color="#fff2c4"/><stop offset="0.45" stop-color="#ffe489"/><stop offset="1" stop-color="#bf9e30"/></linearGradient><linearGradient id="b" x1="43.82" y1="24.48" x2="43.82" y2="97.82" xlink:href="#a"/><linearGradient id="c" x1="88.9" y1="24.48" x2="88.9" y2="97.82" xlink:href="#a"/><linearGradient id="d" x1="79.47" y1="24.48" x2="79.47" y2="97.82" xlink:href="#a"/><linearGradient id="e" x1="92.04" y1="24.48" x2="92.04" y2="97.82" xlink:href="#a"/></defs><title>cre_i2202</title><rect width="120" height="120" fill="#fff" opacity="0"/><path d="M40.3,49.9c-.5-5.3-.6-9,1-14.3,6.1-3.7,13.6,2.3,22.6.2a54.6,54.6,0,0,1,.9,14.3s3.5-3,4-5.6-.4-14-1.7-15.9c-4.9-7.3-23.2-7.6-28.6-1.3C37,29.2,35.4,44.9,37,46.9A11.4,11.4,0,0,0,40.3,49.9Z" fill-rule="evenodd" fill="url(#a)"/><path d="M65.6,91.5V65.4l-.6-.2L60.6,62l-1.2,2.8L52.5,78.7,45.5,64.8,44.3,62,40,65.1,23.1,71.7c-2.1,4.1-2.9,11.6-2.8,22h-.8c0,1.1,0,2.2,0,3.4H68.1A7.3,7.3,0,0,1,65.6,91.5Z" fill="url(#b)"/><path d="M104.6,52.5H73.2a3.6,3.6,0,0,0-3.6,3.6V90.6a3.6,3.6,0,0,0,3.6,3.6h31.4a3.6,3.6,0,0,0,3.6-3.6V56.1A3.6,3.6,0,0,0,104.6,52.5Zm-.4,4V90.2H73.6V56.5Z" fill="url(#c)"/><rect x="77.9" y="63.9" width="3.1" height="3.14" fill="url(#d)"/><rect x="84.2" y="63.9" width="15.7" height="3.14" fill="url(#e)"/><rect x="84.2" y="71.8" width="15.7" height="3.14" fill="url(#e)"/><rect x="84.2" y="79.6" width="15.7" height="3.14" fill="url(#e)"/><rect x="77.9" y="71.8" width="3.1" height="3.14" fill="url(#d)"/><rect x="77.9" y="79.6" width="3.1" height="3.14" fill="url(#d)"/></svg>