<svg xmlns="http://www.w3.org/2000/svg" viewBox="0 0 82 82"><title>fri_i01</title><circle cx="41" cy="41" r="41" fill="#5bac3b"/><path d="M50.9,32h1.9c-1.7-8-10.2-13.9-19.9-13.9S13.1,25.7,13.1,35.1c0,5.4,3,9.9,7.9,13.3l-2,5.9,6.9-3.5a33.9,33.9,0,0,0,6.9,1h1.8a14.7,14.7,0,0,1-.6-4.1C34.1,39,41.5,32,50.9,32ZM40.3,26.7a2.5,2.5,0,1,1,0,4.9,2.8,2.8,0,0,1-3-2.5A2.8,2.8,0,0,1,40.3,26.7ZM26.4,31.6a2.8,2.8,0,0,1-3-2.5c0-1.5,1.5-2.5,3-2.5a2.5,2.5,0,0,1,0,4.9Z" fill="#fff" fill-rule="evenodd"/><path d="M68.9,47.4c0-7.9-7.9-14.3-16.8-14.3S35.3,39.5,35.3,47.4s7.4,14.3,16.8,14.3a24.8,24.8,0,0,0,5.9-1l5.4,3L62,58.8C66,55.8,68.9,51.9,68.9,47.4ZM46.7,44.9a2,2,0,0,1,0-4,2.3,2.3,0,0,1,2.5,2A2.2,2.2,0,0,1,46.7,44.9Zm10.9,0a2,2,0,0,1,0-4A2.3,2.3,0,0,1,60,43,2.3,2.3,0,0,1,57.5,44.9Z" fill="#fff" fill-rule="evenodd"/></svg>