<svg xmlns="http://www.w3.org/2000/svg" viewBox="0 0 82 82"><title>fri_i03</title><circle cx="41" cy="41" r="41" fill="#1d7951"/><path d="M58.3,39.1c.1-3.2.3-20.1-17.4-20h0C23.2,19,23.5,36,23.6,39.2c-3.3,3.8-5.5,13-4.6,13.1a5.1,5.1,0,0,0,4.6-1.9c.6-.6.6-.4.8.1s1.9,3.8,2.4,4.5.3,1-.5,1.1A4.6,4.6,0,0,0,23.8,58c-1.2,1.6,0,3.2,2.4,4,6.9,2.2,12.2.1,12.6-.2l1.2-.4H42l1.3.5a19.4,19.4,0,0,0,12.7-.1c2.2-.8,3.2-2.2,2.2-3.6a4.7,4.7,0,0,0-2.9-2c-.6-.2-.8-.3-.4-.8a48,48,0,0,0,2.3-4.4c.2-.5.4-1.1.8-.5s3.2,2.5,4.7,1.9S61,42.6,58.3,39.1Z" fill="#fff"/></svg>