<svg xmlns="http://www.w3.org/2000/svg" viewBox="0 0 82 82"><title>fri_i05</title><circle cx="41" cy="41" r="41" fill="#a41a1a"/><path d="M53.9,40.2c-.7-.2-1.2-.4-.8-1.3s.9-3.8,0-5.1-6.2-2.3-11.5-.1c0,0-1.6.7-1.2-.6s.7-4.8-.6-6c-2.8-2.8-10.4.1-16.9,6.6-4.8,4.9-7.7,10-7.7,14.4,0,8.5,10.9,13.7,21.6,13.7,14,0,23.3-8.1,23.3-14.6C60.1,43.4,56.9,41.1,53.9,40.2Zm-17,18.5c-8.5.8-15.9-3-16.4-8.6s5.9-10.8,14.4-11.6,15.9,3,16.4,8.6S45.4,57.9,36.9,58.8Z" fill="#fff"/><path d="M63.2,24.7a13.6,13.6,0,0,0-13-4.2h0a2,2,0,0,0,.8,3.9A9.7,9.7,0,0,1,62.3,36.8h0A2,2,0,0,0,66,38h0a13.6,13.6,0,0,0-2.8-13.3" fill="#fff"/><path d="M58,29.3a6.6,6.6,0,0,0-6.3-2,1.7,1.7,0,1,0,.7,3.3h0a3.2,3.2,0,0,1,3.8,4.2h0a1.7,1.7,0,1,0,3.2,1A6.6,6.6,0,0,0,58,29.3" fill="#fff"/><path d="M37.7,42.8a9.3,9.3,0,0,0-10.4,4.5c-1.8,3.6-.1,7.7,4,9a9.2,9.2,0,0,0,11-4.7C44.1,47.9,41.9,43.9,37.7,42.8Zm-3.1,9.3a3.2,3.2,0,0,1-3.9,1.3,2.3,2.3,0,0,1-.9-3.4,3.2,3.2,0,0,1,3.8-1.3A2.3,2.3,0,0,1,34.6,52.1Zm2.7-3.5a1.2,1.2,0,0,1-1.5.5.9.9,0,0,1-.4-1.3,1.2,1.2,0,0,1,1.4-.5A.9.9,0,0,1,37.4,48.7Z" fill="#fff"/></svg>