<svg xmlns="http://www.w3.org/2000/svg" viewBox="0 0 46 42"><title>icon_service</title><path d="M24.2,16.4c0-2.4-2-3.4-3.9-3.4a4.4,4.4,0,0,0-4,2.4l2.1,1.3A2.2,2.2,0,0,1,20,15.6a1.1,1.1,0,0,1,1.2,1.1c0,1.6-4.9,2.3-4.9,6.4a6.6,6.6,0,0,0,.1,1.2h7.9V22H19.5C19.6,20.6,24.2,19.9,24.2,16.4Zm6.6,16.5c-4.7-3.7-6-1.9-8.2.2s-5.3-1.6-8.6-4.8S7.6,21.5,9.1,20s4-3.4.2-8S3,11,.9,13,.8,24,9.6,32.6s17.8,10.8,20.2,8.5S35.5,36.6,30.7,32.9Zm2.6-19.7H29.9L25.5,20v1.6h5v2.7h2.8V21.6h1.4V19.4H33.3Zm-2.8,3.7v2.5H28.3l1.7-2.5a5.8,5.8,0,0,0,.6-1.1h0A9.7,9.7,0,0,0,30.6,16.9ZM25.5,0A20.6,20.6,0,0,0,8.7,8.5a9.9,9.9,0,0,1,2.2,2A17.6,17.6,0,0,1,23.4,3.1l2.1,3.5,2.1-3.5A17.3,17.3,0,0,1,42.9,17.9L39.3,20,42.9,22a17,17,0,0,1-8,12.3,5.1,5.1,0,0,1,.5,1.9,4.8,4.8,0,0,1-.1,1.3A19.9,19.9,0,0,0,46,20,20.3,20.3,0,0,0,25.5,0Z" fill="#fff" fill-rule="evenodd"/></svg>