<svg xmlns="http://www.w3.org/2000/svg" xmlns:xlink="http://www.w3.org/1999/xlink" viewBox="0 0 65.3 65.3"><defs><linearGradient id="a" x1="32.64" y1="1.2" x2="32.64" y2="62.77" gradientUnits="userSpaceOnUse"><stop offset="0" stop-color="#fff2c4"/><stop offset="0.45" stop-color="#ffe489"/><stop offset="1" stop-color="#bf9e30"/></linearGradient></defs><title>lan_select</title><circle cx="32.6" cy="32.6" r="32.6" fill="url(#a)"/><path d="M53.1,21.1l-1.9-1.3a1.1,1.1,0,0,0-1.6.3L25.9,43.1l-9-8.4a1.1,1.1,0,0,0-1.6,0l-1.6,1.6a1.1,1.1,0,0,0,0,1.6L25,48.5a2.2,2.2,0,0,0,1.4.6,1.7,1.7,0,0,0,1.4-.8L53.4,22.7A1.1,1.1,0,0,0,53.1,21.1Z" fill="#fff"/></svg>