<svg xmlns="http://www.w3.org/2000/svg" xmlns:xlink="http://www.w3.org/1999/xlink" viewBox="0 0 110 110"><defs><linearGradient id="a" x1="59.93" y1="29.11" x2="59.93" y2="87.2" gradientUnits="userSpaceOnUse"><stop offset="0" stop-color="#fff2c4"/><stop offset="0.45" stop-color="#ffe489"/><stop offset="1" stop-color="#bf9e30"/></linearGradient><linearGradient id="b" x1="76.93" y1="29.11" x2="76.93" y2="87.2" xlink:href="#a"/><linearGradient id="d" x1="42.93" y1="29.11" x2="42.93" y2="87.2" xlink:href="#a"/><linearGradient id="e" x1="69.61" y1="29.11" x2="69.61" y2="87.2" xlink:href="#a"/><linearGradient id="f" x1="53.68" y1="29.11" x2="53.68" y2="87.2" xlink:href="#a"/><linearGradient id="g" x1="55.03" y1="29.11" x2="55.03" y2="87.2" xlink:href="#a"/></defs><title>pinfo102</title><rect width="110" height="110" fill="#fff" opacity="0"/><path d="M73,53H31.2V87H88.7V53ZM84.5,75.5l-1.7,1.7h-.6a3.4,3.4,0,0,0-3.4,3.4,3.2,3.2,0,0,0,.1.6l-1.7,1.7H42.7L41,81.1a3.2,3.2,0,0,0,.1-.6,3.4,3.4,0,0,0-3.4-3.4h-.6l-1.7-1.7v-11l1.7-1.7h.6a3.4,3.4,0,0,0,3.4-3.4,3.2,3.2,0,0,0-.1-.6l1.7-1.7H77.2l1.7,1.7a3.2,3.2,0,0,0-.1.6,3.4,3.4,0,0,0,3.4,3.4h.6l1.7,1.7Z" fill="url(#a)"/><circle cx="76.9" cy="70" r="3.4" fill="url(#b)"/><ellipse cx="59.9" cy="70" rx="10.3" ry="8.9" fill="url(#a)"/><circle cx="42.9" cy="70" r="3.4" fill="url(#d)"/><path d="M68,40.6a3.4,3.4,0,1,0,4.6,1.3A3.4,3.4,0,0,0,68,40.6Z" fill="url(#e)"/><path d="M33.3,49.1v-.3L63.7,32.2l2.3.7a3.2,3.2,0,0,0,.2.6,3.4,3.4,0,0,0,4.6,1.3l.5-.4,2.3.7,5.3,9.6L78.2,47l-.6.2A3.4,3.4,0,0,0,76,49.1h10L79.3,36.7h0L71.8,23,58,30.5h0L35.1,43.1,21.3,50.6l5.9,10.8V53a3.9,3.9,0,0,1,3.9-3.9Z" fill="url(#f)"/><path d="M50.4,43.9a11.1,11.1,0,0,0-4.8,5.2H64.5a7.7,7.7,0,0,0-.8-2.3C61.3,42.5,55.4,41.2,50.4,43.9Z" fill="url(#g)"/></svg>