<svg xmlns="http://www.w3.org/2000/svg" xmlns:xlink="http://www.w3.org/1999/xlink" viewBox="0 0 110 110"><defs><linearGradient id="a" x1="55" y1="29.71" x2="55" y2="81.55" gradientUnits="userSpaceOnUse"><stop offset="0" stop-color="#fff2c4"/><stop offset="0.45" stop-color="#ffe489"/><stop offset="1" stop-color="#bf9e30"/></linearGradient></defs><title>pinfo103</title><rect width="110" height="110" fill="#fff" opacity="0"/><path d="M44.2,44.6h4.4S38,39.9,41.3,35.8c1.4-1.7,2.5-2.1,4.3-.9s4.3,3.1,5.9,4.3a2.1,2.1,0,0,0-.4,1.2v2.1a2,2,0,0,0,2,2.1h4a2,2,0,0,0,2-2.1V40.5a2.1,2.1,0,0,0-.4-1.2c1.6-1.2,4-3.1,5.9-4.3s2.9-.9,4.3.9c3.2,4.1-7.3,8.8-7.3,8.8h4.4c2.1,0,14.9-4.9,5.5-14.6-2.6-2.7-4.8-1.9-6.1-.2l-7.1,9.1a1.9,1.9,0,0,0-1.2-.5H53a1.9,1.9,0,0,0-1.2.5l-7.1-9.1c-1.3-1.7-3.5-2.5-6.1.2C29.3,39.7,42.1,44.6,44.2,44.6Zm32.7,2.1H33.1a2,2,0,0,0-2,2.1v6.2a2,2,0,0,0,2,2.1H51V48.7h8V57H76.9a2,2,0,0,0,2-2.1V48.7A2,2,0,0,0,76.9,46.7Zm-4,12.4H37.1a2,2,0,0,0-2,2.1V79.7a2,2,0,0,0,2,2.1H51V61.1h8V81.7h14a2,2,0,0,0,2-2.1V61.1A2,2,0,0,0,72.9,59.1Z" fill-rule="evenodd" fill="url(#a)"/></svg>