<svg xmlns="http://www.w3.org/2000/svg" xmlns:xlink="http://www.w3.org/1999/xlink" viewBox="0 0 110 110"><defs><linearGradient id="a" x1="44.66" y1="25.88" x2="44.66" y2="86.43" gradientUnits="userSpaceOnUse"><stop offset="0" stop-color="#fff2c4"/><stop offset="0.45" stop-color="#ffe489"/><stop offset="1" stop-color="#bf9e30"/></linearGradient><linearGradient id="b" x1="69.96" y1="25.88" x2="69.96" y2="86.43" xlink:href="#a"/></defs><title>pinfo108</title><rect width="110" height="110" fill="#fff" opacity="0"/><path d="M64.1,67.8V62.9L58.3,62a14,14,0,0,0-1.6-3.8l3.4-4.8-3.4-3.4-4.7,3.4a13.9,13.9,0,0,0-3.9-1.6l-1-5.8H42.2l-.9,5.7a14,14,0,0,0-3.9,1.6l-4.7-3.4-3.4,3.4,3.3,4.8A14.1,14.1,0,0,0,30.9,62l-5.7,1v4.9l5.7,1a14,14,0,0,0,1.6,3.9l-3.4,4.7,3.4,3.4,4.8-3.3a14,14,0,0,0,3.9,1.6l1,5.7h4.9l1-5.8a14,14,0,0,0,3.9-1.6l4.8,3.4,3.4-3.4-3.4-4.8a14,14,0,0,0,1.6-3.8ZM44.7,72.2a6.8,6.8,0,1,1,6.8-6.8A6.8,6.8,0,0,1,44.7,72.2Z" fill="url(#a)"/><path d="M83,47.5l1.4-3.4-3.8-2.4a10.7,10.7,0,0,0,0-3.2l3.8-2.4L83,32.7l-4.4,1a10.7,10.7,0,0,0-2.3-2.3l1-4.4L74,25.6l-2.4,3.8a10.7,10.7,0,0,0-3.2,0l-2.3-3.8L62.6,27l.9,4.3a10.9,10.9,0,0,0-2.3,2.3l-4.3-1L55.5,36l3.7,2.4a10.7,10.7,0,0,0,0,3.2L55.5,44l1.4,3.4,4.3-.9a10.8,10.8,0,0,0,2.3,2.3l-1,4.3,3.4,1.4,2.4-3.8a10.6,10.6,0,0,0,3.2,0l2.4,3.8,3.4-1.4-1-4.4a10.8,10.8,0,0,0,2.3-2.2ZM68,44.9a5.2,5.2,0,1,1,6.8-2.8A5.2,5.2,0,0,1,68,44.9Z" fill="url(#b)"/></svg>