<svg xmlns="http://www.w3.org/2000/svg" xmlns:xlink="http://www.w3.org/1999/xlink" viewBox="0 0 110 110"><defs><linearGradient id="a" x1="55" y1="33.28" x2="55" y2="76.78" gradientUnits="userSpaceOnUse"><stop offset="0" stop-color="#fff2c4"/><stop offset="0.45" stop-color="#ffe489"/><stop offset="1" stop-color="#bf9e30"/></linearGradient></defs><title>pinfo109</title><rect width="110" height="110" fill="#fff" opacity="0"/><path d="M75.1,34.1H34.9a8.2,8.2,0,0,0-8.2,8.2V67.7a8.2,8.2,0,0,0,8.2,8.2H75.1a8.2,8.2,0,0,0,8.2-8.2V42.3A8.2,8.2,0,0,0,75.1,34.1Zm-1.3,5L55.5,54.2a.8.8,0,0,1-1.1,0L36.2,39.1Zm4.5,28.6a3.2,3.2,0,0,1-3.2,3.2H34.9a3.2,3.2,0,0,1-3.2-3.2V42.3a3.2,3.2,0,0,1,0-.4L51.3,58a5.8,5.8,0,0,0,7.4,0L78.3,41.9a3.2,3.2,0,0,1,0,.4Z" fill="url(#a)"/></svg>