<svg xmlns="http://www.w3.org/2000/svg" xmlns:xlink="http://www.w3.org/1999/xlink" viewBox="0 0 110 110"><defs><linearGradient id="a" x1="56.58" y1="29.74" x2="56.58" y2="78.24" gradientUnits="userSpaceOnUse"><stop offset="0" stop-color="#fff2c4"/><stop offset="0.45" stop-color="#ffe489"/><stop offset="1" stop-color="#bf9e30"/></linearGradient><linearGradient id="e" x1="72.04" y1="29.74" x2="72.04" y2="78.24" xlink:href="#a"/><linearGradient id="g" x1="41.11" y1="29.74" x2="41.11" y2="78.24" xlink:href="#a"/></defs><title>pinfo106</title><rect width="110" height="110" fill="#fff" opacity="0"/><path d="M33.4,78.5a1.9,1.9,0,0,1-1.9-1.9V72.8a1.9,1.9,0,0,1,1.9-1.9H79.8a1.9,1.9,0,0,1,1.9,1.9v3.9a1.9,1.9,0,0,1-1.9,1.9Z" fill="url(#a)"/><path d="M33.4,45.7a1.9,1.9,0,0,1-1.9-1.9V41.8c0-1.1.8-1.4,1.9-1.9L56.6,28.3,79.8,39.9c1.1.5,1.9.9,1.9,1.9v1.9a1.9,1.9,0,0,1-1.9,1.9Z" fill="url(#a)"/><path d="M62.4,49.6a1.9,1.9,0,0,1-1.9,1.9H52.7a1.9,1.9,0,0,1-1.9-1.9V47.6H62.4Z" fill="url(#a)"/><path d="M60.4,68.9H52.7V49.6a1.9,1.9,0,0,1,1.9-1.9h3.9a1.9,1.9,0,0,1,1.9,1.9Z" fill="url(#a)"/><path d="M77.8,49.6a1.9,1.9,0,0,1-1.9,1.9H68.2a1.9,1.9,0,0,1-1.9-1.9V47.6H77.8Z" fill="url(#e)"/><path d="M75.9,68.9H68.2V49.6a1.9,1.9,0,0,1,1.9-1.9H74a1.9,1.9,0,0,1,1.9,1.9Z" fill="url(#e)"/><path d="M46.9,49.6A1.9,1.9,0,0,1,45,51.5H37.2a1.9,1.9,0,0,1-1.9-1.9V47.6H46.9Z" fill="url(#g)"/><path d="M45,68.9H37.2V49.6a1.9,1.9,0,0,1,1.9-1.9H43A1.9,1.9,0,0,1,45,49.6Z" fill="url(#g)"/></svg>