<svg xmlns="http://www.w3.org/2000/svg" xmlns:xlink="http://www.w3.org/1999/xlink" viewBox="0 0 110 110"><defs><linearGradient id="a" x1="53.85" y1="27.31" x2="53.85" y2="79.35" gradientUnits="userSpaceOnUse"><stop offset="0" stop-color="#fff2c4"/><stop offset="0.45" stop-color="#ffe489"/><stop offset="1" stop-color="#bf9e30"/></linearGradient></defs><title>pinfo110</title><rect width="110" height="110" fill="#fff" opacity="0"/><path d="M67.5,45.8H63l-5.8,8.9v2.2h6.7v3.5h3.6V56.9h1.8v-3H67.5Zm-3.6,4.9v3.3H60.9l2.3-3.4a7.7,7.7,0,0,0,.7-1.5h0A12.8,12.8,0,0,0,63.8,50.6Zm.2,21.2c-6.2-4.9-8-2.5-10.8.3S46.3,70,42,65.8s-8.4-9.1-6.5-11,5.3-4.5.3-10.5-8.4-1.4-11.1,1.3-.2,14.6,11.5,26S59.6,85.7,62.8,82.6,70.3,76.7,64.1,71.8ZM55.4,50c0-3.1-2.7-4.5-5.1-4.5A5.8,5.8,0,0,0,45,48.7l2.7,1.8a2.9,2.9,0,0,1,2.2-1.6,1.5,1.5,0,0,1,1.6,1.5c0,2.1-6.5,3.1-6.5,8.5a8.7,8.7,0,0,0,.2,1.6H55.6V57.4H49.2C49.3,55.5,55.4,54.6,55.4,50Zm1.8-21.7A27.2,27.2,0,0,0,35,39.6a13.1,13.1,0,0,1,3,2.7,23.2,23.2,0,0,1,16.4-9.9L57.2,37l2.8-4.6A22.8,22.8,0,0,1,80.1,52l-4.7,2.7,4.7,2.7A22.5,22.5,0,0,1,69.5,73.7a6.7,6.7,0,0,1,.6,2.5,6.4,6.4,0,0,1-.2,1.8A26.3,26.3,0,0,0,84.2,54.7C84.2,40.2,72.1,28.3,57.2,28.3Z" fill-rule="evenodd" fill="url(#a)"/></svg>