<svg xmlns="http://www.w3.org/2000/svg" xmlns:xlink="http://www.w3.org/1999/xlink" viewBox="0 0 110 110"><defs><linearGradient id="a" x1="50.15" y1="29.09" x2="50.15" y2="81.75" gradientUnits="userSpaceOnUse"><stop offset="0" stop-color="#fff2c4"/><stop offset="0.45" stop-color="#ffe489"/><stop offset="1" stop-color="#bf9e30"/></linearGradient><linearGradient id="b" x1="50.06" y1="29.09" x2="50.06" y2="81.75" xlink:href="#a"/><linearGradient id="d" x1="43.67" y1="29.09" x2="43.67" y2="81.75" xlink:href="#a"/><linearGradient id="e" x1="67.35" y1="29.09" x2="67.35" y2="81.75" xlink:href="#a"/></defs><title>pinfo104</title><rect width="110" height="110" fill="#fff" opacity="0"/><path d="M50.1,58.5c10.9,0,19.7-4.1,19.7-9.2V42.3c0,5.1-8.8,9.2-19.7,9.2s-19.7-4.1-19.7-9.2v7.1C30.5,54.4,39.3,58.5,50.1,58.5Z" fill="url(#a)"/><ellipse cx="50.1" cy="39.5" rx="19.7" ry="9.2" fill="url(#b)"/><path d="M50.1,68.1h2.6l.6-.7,1.9-1.9a4.4,4.4,0,0,1,6.2,0l.8.8a19.3,19.3,0,0,0,4-1.9l3.7-5.5v-7c0,5.1-8.8,9.2-19.7,9.2s-19.7-4.1-19.7-9.2v7.1C30.5,64,39.3,68.1,50.1,68.1Z" fill="url(#a)"/><path d="M53.3,73.5a4.4,4.4,0,0,1-1.3-3H50.1c-10.9,0-19.7-4.1-19.7-9.2v7.1c0,5.1,8.8,9.2,19.7,9.2a40.3,40.3,0,0,0,6.7-.6Z" fill="url(#d)"/><path d="M79,57.8l-2.2-1.5a1.3,1.3,0,0,0-1.9.4L64.2,72.5l-5-5a1.3,1.3,0,0,0-1.9,0l-1.9,1.9a1.3,1.3,0,0,0,0,1.9L63.1,79a2.6,2.6,0,0,0,1.7.8,2,2,0,0,0,1.6-1l13-19.2A1.3,1.3,0,0,0,79,57.8Z" fill="url(#e)"/></svg>