<svg xmlns="http://www.w3.org/2000/svg" xmlns:xlink="http://www.w3.org/1999/xlink" viewBox="0 0 110 110"><defs><linearGradient id="a" x1="43.93" y1="27.97" x2="43.93" y2="86.05" gradientUnits="userSpaceOnUse"><stop offset="0" stop-color="#fff2c4"/><stop offset="0.45" stop-color="#ffe489"/><stop offset="1" stop-color="#bf9e30"/></linearGradient><linearGradient id="b" x1="73.87" y1="27.97" x2="73.87" y2="86.05" xlink:href="#a"/><linearGradient id="d" x1="66.07" y1="27.97" x2="66.07" y2="86.05" xlink:href="#a"/><linearGradient id="e" x1="73.02" y1="27.97" x2="73.02" y2="86.05" xlink:href="#a"/></defs><title>pinfo101</title><rect width="110" height="110" fill="#fff" opacity="0"/><path d="M43.9,72.9c-9.5,0-17.2-4.3-17.3-9.5,0,2,0,3.8,0,3.8,0,5.3,7.7,9.5,17.3,9.5s17.3-4.3,17.3-9.5V63.4C61.2,68.6,53.5,72.9,43.9,72.9Zm0,6.6c-9.5,0-17.2-4.3-17.3-9.5,0,2,0,3.8,0,3.8,0,5.3,7.7,9.5,17.3,9.5s17.3-4.3,17.3-9.5V70C61.2,75.3,53.5,79.6,43.9,79.6Z" fill="url(#a)"/><path d="M66.1,68.5H64.4c0,.2,0,.3,0,.5a3.3,3.3,0,0,1,.2,1.1v2.2h1.5c9.6,0,17.3-4.3,17.3-9.5V58.9C83.4,64.2,75.6,68.5,66.1,68.5Z" fill="url(#b)"/><path d="M66.1,61.8H64.4c0,.2,0,.3,0,.5a3.4,3.4,0,0,1,.2,1.1v2.2h1.5c9.6,0,17.3-4.3,17.3-9.5V52.3C83.4,57.6,75.6,61.8,66.1,61.8Z" fill="url(#b)"/><path d="M66.1,48.6c-9.5,0-17.2-4.3-17.3-9.5,0,2,0,3.8,0,3.8,0,2.3,1.4,4.3,3.8,6a22.6,22.6,0,0,1,6.3,2.7,29.5,29.5,0,0,0,7.2.9c9.6,0,17.3-4.3,17.3-9.5V39C83.4,44.3,75.6,48.6,66.1,48.6Z" fill="url(#d)"/><path d="M66.1,55.2,62.7,55A9.6,9.6,0,0,1,64.4,59h1.7c9.6,0,17.3-4.3,17.3-9.5V45.7C83.4,50.9,75.6,55.2,66.1,55.2Z" fill="url(#e)"/><path d="M66.1,26.6c-9.6,0-17.3,4.3-17.3,9.5s7.7,9.5,17.3,9.5,17.3-4.3,17.3-9.5S75.6,26.6,66.1,26.6Z" fill="url(#d)"/><path d="M43.9,51c-9.6,0-17.3,4.3-17.3,9.5s7.7,9.5,17.3,9.5,17.3-4.3,17.3-9.5S53.5,51,43.9,51Z" fill="url(#a)"/></svg>