<svg xmlns="http://www.w3.org/2000/svg" xmlns:xlink="http://www.w3.org/1999/xlink" viewBox="0 0 110 110"><defs><linearGradient id="a" x1="55" y1="26.35" x2="55" y2="82" gradientUnits="userSpaceOnUse"><stop offset="0" stop-color="#fff2c4"/><stop offset="0.45" stop-color="#ffe489"/><stop offset="1" stop-color="#bf9e30"/></linearGradient><linearGradient id="b" x1="43.98" y1="26.33" x2="43.98" y2="81.97" xlink:href="#a"/><linearGradient id="e" x1="59.41" y1="26.33" x2="59.41" y2="81.97" xlink:href="#a"/><linearGradient id="h" x1="48.7" y1="26.33" x2="48.7" y2="81.97" xlink:href="#a"/></defs><title>pinfo107</title><rect width="110" height="110" fill="#fff" opacity="0"/><path d="M71,35.6,69.4,34l-1.6-1.6c-3.8-3.8-6-6-8.4-6H41.8A8.8,8.8,0,0,0,33,35.2V74.8a8.8,8.8,0,0,0,8.8,8.8H68.2A8.8,8.8,0,0,0,77,74.8V44C77,41.6,74.9,39.4,71,35.6Zm1.6,39.2a4.4,4.4,0,0,1-4.4,4.4H41.8a4.4,4.4,0,0,1-4.4-4.4V35.2a4.4,4.4,0,0,1,4.4-4.4H57.8c1.6.4,1.6,2.4,1.6,4.3v6.7A2.2,2.2,0,0,0,61.6,44h6.6c2.2,0,4.4,0,4.4,2.2Z" fill="url(#a)"/><rect x="41.8" y="50.6" width="4.4" height="4.41" fill="url(#b)"/><rect x="41.8" y="59.4" width="4.4" height="4.41" fill="url(#b)"/><rect x="41.8" y="68.2" width="4.4" height="4.41" fill="url(#b)"/><rect x="50.6" y="50.6" width="17.6" height="4.41" fill="url(#e)"/><rect x="50.6" y="59.4" width="17.6" height="4.41" fill="url(#e)"/><rect x="50.6" y="68.2" width="17.6" height="4.41" fill="url(#e)"/><path d="M44,37.4a2.2,2.2,0,0,0-2.2,2.2v2.2A2.2,2.2,0,0,0,44,44H55.6a4.4,4.4,0,0,1-.6-2.2V37.4Z" fill="url(#h)"/></svg>