<svg xmlns="http://www.w3.org/2000/svg" xmlns:xlink="http://www.w3.org/1999/xlink" viewBox="0 0 73.6 64.4"><defs><linearGradient id="a" x1="36.8" y1="-0.23" x2="36.8" y2="64.48" gradientUnits="userSpaceOnUse"><stop offset="0" stop-color="#ff2db5"/><stop offset="1" stop-color="#ff952a"/></linearGradient></defs><title>pre_ihot</title><rect width="73.6" height="64.4" opacity="0"/><polygon points="0 36 0 64.4 73.6 0 40.8 0 0 36" fill="url(#a)"/><polygon points="73.6 0 40.8 0 0 36 41.6 1.5 73.1 0.4 73.6 0" fill="#fb83cf"/><path d="M11.9,49.1,4.3,36.2l4-3.4,2.6,4.3,3.8-3.3-2.6-4.3,4-3.4L23.8,39l-4,3.4-2.9-5L13,40.7l2.9,5Z" fill="#fff"/><path d="M34.7,19.9c2.6,4.4,1.2,9.2-2.4,12.4s-7.9,3-10.5-1.4S20.5,22,24.3,18.7,32.7,16.5,34.7,19.9Zm-8.9,7.6c1,1.6,2.7,3.3,4.6,1.6s1.5-3.6.3-5.8-2.8-3-4.6-1.5S24.9,25.8,25.8,27.4Z" fill="#fff"/><path d="M32.2,12.5,43.5,2.8l2,3.4L41.9,9.3l5.6,9.5-4,3.4-5.6-9.5-3.6,3.1Z" fill="#fff"/></svg>