<svg xmlns="http://www.w3.org/2000/svg" xmlns:xlink="http://www.w3.org/1999/xlink" viewBox="0 0 84 84"><defs><linearGradient id="a" y1="42" x2="84" y2="42" gradientUnits="userSpaceOnUse"><stop offset="0" stop-color="#fff"/><stop offset="1"/></linearGradient></defs><title>pre_arrR</title><rect width="84" height="84" opacity="0" fill="url(#a)"/><path d="M51.5,42h0a2.4,2.4,0,0,0-.7-1.7h0L36.5,25.7h0a2.3,2.3,0,0,0-1.6-.7,2.4,2.4,0,0,0-2.4,2.4,2.4,2.4,0,0,0,.8,1.8L45.8,42,33.2,54.9h0a2.4,2.4,0,0,0-.7,1.7A2.4,2.4,0,0,0,34.9,59a2.3,2.3,0,0,0,1.6-.7h0L50.8,43.7h0a2.4,2.4,0,0,0,.7-1.7Z" fill="#ffdf5e" fill-rule="evenodd"/></svg>