<svg xmlns="http://www.w3.org/2000/svg" viewBox="0 0 110 110"><title>safe_i103</title><rect width="110" height="110" fill="#fff" opacity="0"/><path d="M87.2,31.6a3.3,3.3,0,0,0-2.4-1.1c-7-.2-15.8-7.6-21.6-10.5-3.6-1.8-6-3-7.8-3.3H54.5c-1.8.3-4.2,1.5-7.8,3.3-5.8,2.9-14.6,10.4-21.6,10.5a3.3,3.3,0,0,0-2.4,1.1,3.5,3.5,0,0,0-.9,2.5c1.5,30.4,12.4,49.2,31.5,60.1a3.2,3.2,0,0,0,3.2,0c19.1-10.9,30-29.7,31.5-60.1A3.5,3.5,0,0,0,87.2,31.6ZM58,73.8a4.4,4.4,0,0,1-5.9,0A3.6,3.6,0,0,1,50.9,71a3.6,3.6,0,0,1,1.2-2.8,4.3,4.3,0,0,1,5.9,0A3.6,3.6,0,0,1,59.3,71,3.6,3.6,0,0,1,58,73.8Zm7.8-26.1a13.8,13.8,0,0,1-1.8,3,17.3,17.3,0,0,1-2.3,2.4l-2.3,2.1a11.4,11.4,0,0,0-1.7,2.1,4.3,4.3,0,0,0-.6,2.3,6.6,6.6,0,0,0,.3,2V62a.4.4,0,0,1-.4.4H51.8a.4.4,0,0,1-.4-.2l-.2-.5a12.2,12.2,0,0,1-.2-2.3,7,7,0,0,1,.7-3.1,12.7,12.7,0,0,1,1.7-2.5l2.1-2.2,2.1-2.1a10.9,10.9,0,0,0,1.6-2.1,4.4,4.4,0,0,0,.6-2.3,3.8,3.8,0,0,0-1.6-3.3,5.6,5.6,0,0,0-1.8-.8l-2.2-.3c-2.5,0-5,1.2-7.3,3.4h-.4a.4.4,0,0,1-.2-.3V37.8a.4.4,0,0,1,.2-.3,18.2,18.2,0,0,1,9.3-2.6,14.9,14.9,0,0,1,4.2.6,10.7,10.7,0,0,1,3.5,1.7A8.2,8.2,0,0,1,65.7,40a8.6,8.6,0,0,1,.9,4A9.5,9.5,0,0,1,65.9,47.7Z" fill="#dcb454"/></svg>