<svg xmlns="http://www.w3.org/2000/svg" viewBox="0 0 80 36"><title>small_hot</title><path d="M0,4H64A16,16,0,0,1,80,20v0A16,16,0,0,1,64,36H0a0,0,0,0,1,0,0V4A0,0,0,0,1,0,4Z" opacity="0.15"/><path d="M0,2.8H64a16,16,0,0,1,16,16v0a16,16,0,0,1-16,16H0a0,0,0,0,1,0,0V2.8A0,0,0,0,1,0,2.8Z" opacity="0.2"/><path d="M0,1.5H64a16,16,0,0,1,16,16v0a16,16,0,0,1-16,16H0a0,0,0,0,1,0,0V1.5a0,0,0,0,1,0,0Z" opacity="0.3"/><path d="M0,0H64A16,16,0,0,1,80,16v0A16,16,0,0,1,64,32H0a0,0,0,0,1,0,0V0A0,0,0,0,1,0,0Z" fill="#ff4a4a"/><path d="M12.4,23.8V7.7h3.3V14h6.4V7.7h3.3V23.8H22.1V16.8H15.7v7.1Z" fill="#fff"/><path d="M29.4,15.9a10.3,10.3,0,0,1,.7-4.1,7.6,7.6,0,0,1,1.5-2.2A6.3,6.3,0,0,1,33.7,8a8.9,8.9,0,0,1,3.5-.6,7.6,7.6,0,0,1,5.7,2.2,8.5,8.5,0,0,1,2.1,6.2,8.5,8.5,0,0,1-2.1,6.1,7.5,7.5,0,0,1-5.7,2.2,7.6,7.6,0,0,1-5.7-2.2A8.4,8.4,0,0,1,29.4,15.9Zm3.4-.1A6.1,6.1,0,0,0,34,19.9a4.4,4.4,0,0,0,6.4,0,6.2,6.2,0,0,0,1.3-4.2,6.1,6.1,0,0,0-1.2-4.1,4.5,4.5,0,0,0-6.5,0A6.1,6.1,0,0,0,32.7,15.7Z" fill="#fff"/><path d="M52.6,23.8V10.4H47.8V7.7H60.7v2.7H55.9V23.8Z" fill="#fff"/></svg>