<svg xmlns="http://www.w3.org/2000/svg" viewBox="0 0 80 36"><title>small_new</title><path d="M0,4H64A16,16,0,0,1,80,20v0A16,16,0,0,1,64,36H0a0,0,0,0,1,0,0V4A0,0,0,0,1,0,4Z" opacity="0.15"/><path d="M0,2.8H64a16,16,0,0,1,16,16v0a16,16,0,0,1-16,16H0a0,0,0,0,1,0,0V2.8A0,0,0,0,1,0,2.8Z" opacity="0.2"/><path d="M0,1.5H64a16,16,0,0,1,16,16v0a16,16,0,0,1-16,16H0a0,0,0,0,1,0,0V1.5A0,0,0,0,1,0,1.5Z" opacity="0.3"/><path d="M0,0H64A16,16,0,0,1,80,16v0A16,16,0,0,1,64,32H0a0,0,0,0,1,0,0V0A0,0,0,0,1,0,0Z" fill="#20ab9f"/><path d="M12.4,24.6V8.4h3.2l6.6,10.8V8.4h3V24.6H22L15.4,14V24.6Z" fill="#fff"/><path d="M30,24.6V8.4H42v2.7H33.3v3.6h8.1v2.7H33.3v4.4h9v2.7Z" fill="#fff"/><path d="M48.8,24.6,44.9,8.4h3.3l2.4,11.1,3-11.1h3.9l2.8,11.3L62.8,8.4h3.3L62.2,24.6H58.7L55.5,12.5,52.3,24.6Z" fill="#fff"/></svg>