<svg xmlns="http://www.w3.org/2000/svg" viewBox="0 0 47 30.4"><title>sound_off</title><path d="M20.3,0a2.4,2.4,0,0,0-1.5.6h0L10.5,9.2H2.4A2.4,2.4,0,0,0,0,11.6v8A2.4,2.4,0,0,0,2.4,22h8.1l8.3,7.9h0a2.4,2.4,0,0,0,1.4.5A2.6,2.6,0,0,0,23,28.1V2.1C23,.8,21.6,0,20.3,0Z" fill="#fff" fill-rule="evenodd"/><path d="M41.4,15.1,46.5,10a1.7,1.7,0,1,0-2.4-2.4L39,12.7,33.9,7.6A1.7,1.7,0,1,0,31.5,10l5.1,5.1-5.1,5.1a1.7,1.7,0,1,0,2.4,2.4L39,17.5l5.1,5.1a1.7,1.7,0,1,0,2.4-2.4Z" fill="#fff" fill-rule="evenodd"/></svg>