<svg xmlns="http://www.w3.org/2000/svg" viewBox="0 0 68 69"><title>w_close01</title><g opacity="0.3"><circle cx="34" cy="34.5" r="31.5" fill="#150901"/></g><path d="M38.5,34.5l8.7-9.1a3.2,3.2,0,0,0-.1-4.5,3.3,3.3,0,0,0-4.6.1L34,29.8,25.6,21a3.3,3.3,0,0,0-4.6-.1,3.2,3.2,0,0,0-.1,4.5l8.7,9.1-8.7,9.1a3.2,3.2,0,0,0,.1,4.5,3.3,3.3,0,0,0,4.6-.1L34,39.2,42.4,48a3.3,3.3,0,0,0,4.6.1,3.2,3.2,0,0,0,.1-4.5Z" fill="#ffdf5e" fill-rule="evenodd"/><path d="M34.3,0h-.1A34.1,34.1,0,0,0,0,34.4,34.2,34.2,0,0,0,34.2,69C53.2,69,68,53.6,68,34.4S53.2,0,34.3,0Zm-.1,64.4C18,64.4,5.6,51.3,5.6,34.7S18,4.6,34.1,4.6h.1C50,4.6,62.4,17.7,62.4,34.4S50,64.6,34.2,64.4Z" fill="#ffdf5e" fill-rule="evenodd"/></svg>