<svg xmlns="http://www.w3.org/2000/svg" xmlns:xlink="http://www.w3.org/1999/xlink" viewBox="0 0 67.5 35.7"><defs><linearGradient id="a" x1="48.3" y1="-0.67" x2="48.3" y2="36.33" gradientUnits="userSpaceOnUse"><stop offset="0" stop-color="#ffee7c"/><stop offset="0.45" stop-color="#ffd02b"/><stop offset="1" stop-color="#ffee7c"/></linearGradient><linearGradient id="b" x1="17.32" y1="-0.67" x2="17.32" y2="36.33" xlink:href="#a"/><linearGradient id="c" x1="64.74" y1="-0.67" x2="64.74" y2="36.33" xlink:href="#a"/><linearGradient id="d" x1="2.27" y1="-0.67" x2="2.27" y2="36.33" xlink:href="#a"/><linearGradient id="e" x1="30.72" y1="-0.67" x2="30.72" y2="36.33" xlink:href="#a"/><linearGradient id="f" x1="8.72" y1="-0.67" x2="8.72" y2="36.33" xlink:href="#a"/><linearGradient id="g" x1="58.84" y1="-0.67" x2="58.84" y2="36.33" xlink:href="#a"/><linearGradient id="h" x1="40.78" y1="-0.67" x2="40.78" y2="36.33" xlink:href="#a"/><linearGradient id="i" x1="46.5" y1="-0.67" x2="46.5" y2="36.33" xlink:href="#a"/><linearGradient id="j" x1="18.01" y1="-0.67" x2="18.01" y2="36.33" xlink:href="#a"/><linearGradient id="k" x1="51.33" y1="-0.67" x2="51.33" y2="36.33" xlink:href="#a"/><linearGradient id="l" x1="22.23" y1="-0.67" x2="22.23" y2="36.33" xlink:href="#a"/><linearGradient id="m" x1="13.69" y1="-0.67" x2="13.69" y2="36.33" xlink:href="#a"/><linearGradient id="n" x1="54.84" y1="-0.67" x2="54.84" y2="36.33" xlink:href="#a"/><linearGradient id="o" x1="30.85" y1="-0.67" x2="30.85" y2="36.33" xlink:href="#a"/></defs><title>wm_logo</title><path d="M55.6,0,57,3.9l7.1,19.9V24H59.8c-.2,0-.3-.1-.3-.3L55,11.3H55L48.3,24,41.6,11.2v.2L37.1,23.8a.3.3,0,0,1-.3.2H32.5c0-.1,0-.1,0-.2C35.3,15.9,38.1,8,40.9.1H41l.2.2L43,4.1l1.6,3.4,2,4.2,1.5,3.1v.2l.2-.5.7-1.4L51,9.3l2-4.1L55.5.1h.1Z" fill="url(#a)"/><path d="M33.2,0l-.8,2.4-6,17-1.6,4.4V24c-2.5-5-4.9-10.1-7.3-15.1-2.5,5-4.9,10.1-7.4,15.1L9.3,22C6.7,14.8,4.1,7.5,1.6.2V.1c0-.1,0-.1.1-.1H6.1V.2L8.4,6.5l1.3,3.8.8,2.3h0l.6-1.1L13.1,8l2.9-5.5L17.1.3l.2-.3h0V.2l1.7,3.3,2.6,4.8,1.4,2.7.8,1.6.4-1.1,2.1-6,1.3-3.7L28.5.2V0Z" fill="url(#b)"/><path d="M67.5,30.8a2.8,2.8,0,0,0-3.2-2.3A2.8,2.8,0,1,0,67.4,32c0-.1,0-.2.1-.3v-.9Zm-2.8,2.3a1.8,1.8,0,0,1-1.8-1.8,1.8,1.8,0,1,1,3.7,0A1.8,1.8,0,0,1,64.7,33.1Z" fill="url(#c)"/><path d="M4.4,28.6H3.5c-.1,0-.2,0-.2.2s0,1.2,0,1.9,0,.2-.2.2H1.4c-.2,0-.2,0-.2-.2s0-1.2,0-1.8,0-.2-.2-.2H.2c-.1,0-.2,0-.2.2s0,1.7,0,2.5,0,1.7,0,2.5,0,.2.2.2h.9c.2,0,.2-.1.2-.2s0-1.2,0-1.8,0-.2.2-.2H3.1c.1,0,.2,0,.2.2s0,1.2,0,1.8,0,.2.2.2h.9c.1,0,.1,0,.1-.1q0-2.5,0-5.1C4.5,28.6,4.5,28.6,4.4,28.6Z" fill="url(#d)"/><path d="M30.7,27.4a4.1,4.1,0,1,0,4.1,4.1A4.1,4.1,0,0,0,30.7,27.4Zm0,7.6a3.5,3.5,0,1,1,3.5-3.5A3.5,3.5,0,0,1,30.7,35Z" fill="url(#e)"/><path d="M8.7,28.4a2.8,2.8,0,1,0,2.8,2.9A2.8,2.8,0,0,0,8.7,28.4Zm0,4.6a1.8,1.8,0,0,1-1.8-1.8,1.8,1.8,0,1,1,3.7,0A1.8,1.8,0,0,1,8.7,33.1Z" fill="url(#f)"/><path d="M60.6,28.6H60c-.2,0-.2,0-.2.2s0,1,0,1.4v1.3l-2.8-2.9v.2c0,1.6,0,3.3,0,4.9s0,.2.2.2h.6c.2,0,.2-.1.2-.2s0-1.6,0-2.4V31l2.8,2.9h0q0-2.5,0-5.1C60.8,28.6,60.7,28.6,60.6,28.6Z" fill="url(#g)"/><path d="M43.3,32.7l-.6-.4h-.2a1.9,1.9,0,0,1-1.6.7,1.8,1.8,0,0,1-1.7-2.4,1.8,1.8,0,0,1,1.4-1.3,1.7,1.7,0,0,1,1.8.6h.2l.5-.4c.1-.1.1-.1,0-.2a2.8,2.8,0,0,0-2.2-1h-.4a2.8,2.8,0,1,0,2.7,4.5C43.4,32.8,43.4,32.8,43.3,32.7Z" fill="url(#h)"/><path d="M43.9,33.9H45l.5-1h2l.5.9h1.1l-2.6-5.4Zm3-2.1H46l.5-1Z" fill="url(#i)"/><path d="M19.3,32.9H17.7c-.1,0-.1,0-.1-.1s0-.6,0-.9,0-.2.2-.2h1.1c.1,0,.2,0,.1-.1s0-.5,0-.7,0-.1-.1-.1H17.7c-.2,0-.2,0-.2-.2a8.5,8.5,0,0,0,0-.9c0-.1,0-.2.2-.2h1.6c.1,0,.1,0,.1-.1s0-.4,0-.7,0-.2-.2-.2H16.7c-.1,0-.2,0-.2.2s0,1.7,0,2.5,0,1.7,0,2.5,0,.2.1.2h2.6c.1,0,.1,0,.1-.1s0-.5,0-.7S19.4,32.9,19.3,32.9Z" fill="url(#j)"/><path d="M51.6,30.7l-.5-.2a.5.5,0,0,1-.3-.5.5.5,0,0,1,.4-.4.7.7,0,0,1,.6.2h.2l.6-.3c.1-.1.1-.1,0-.2a1.6,1.6,0,0,0-1.4-.7h-.1a1.5,1.5,0,0,0-1.4,1.7,1.5,1.5,0,0,0,1,1.2l.7.2a.6.6,0,0,1,.4.6.6.6,0,0,1-.6.5.7.7,0,0,1-.8-.5c0-.1-.1-.2-.2-.1h-.6c-.2,0-.2.1-.1.2a1.7,1.7,0,0,0,1.9,1.3,1.6,1.6,0,0,0,1.4-2A1.7,1.7,0,0,0,51.6,30.7Z" fill="url(#k)"/><path d="M23.5,32.9H22.1c-.2,0-.2-.1-.2-.2s0-2.6,0-3.9,0-.2-.2-.2H21c-.1,0-.2,0-.2.2s0,1.7,0,2.5,0,1.7,0,2.5,0,.2.1.2h2.5c.1,0,.1,0,.1-.2s0-.5,0-.7S23.6,32.9,23.5,32.9Z" fill="url(#l)"/><path d="M15.2,28.7c0-.1,0-.1-.1-.1H12.3c-.1,0-.1,0-.1.1s0,.5,0,.7,0,.2.2.2H13c.1,0,.2,0,.2.2s0,1.3,0,2,0,1.4,0,2,0,.2.2.2H14c.2,0,.2,0,.2-.2s0-2.7,0-4,0-.2.2-.2h.7c.1,0,.1,0,.1-.1S15.2,29,15.2,28.7Z" fill="url(#m)"/><path d="M55.2,28.6h-.7c-.1,0-.2,0-.2.2s0,1.7,0,2.5,0,1.7,0,2.5,0,.2.2.2h.7c.1,0,.1,0,.1-.1q0-2.5,0-5.1C55.3,28.6,55.3,28.6,55.2,28.6Z" fill="url(#n)"/><path d="M32.2,32.8a3.4,3.4,0,0,0,.5-1.6c0-.1,0-.1-.1-.1h-.2c-.1,0-.2,0-.2.2a2.7,2.7,0,0,1-.4,1.3l-1.3-1.4a2.5,2.5,0,0,0,1-.7,1.1,1.1,0,0,0-.6-1.7h-.7a1.1,1.1,0,0,0-.9,1.6l.4.6c.1.1.1.1,0,.2l-.4.3a1.4,1.4,0,0,0-.6,1.5,1.3,1.3,0,0,0,1.1,1.1,2,2,0,0,0,2-.5c.1-.1.1-.1.2,0l.3.4H33l-.8-.9A.2.2,0,0,1,32.2,32.8Zm-2.3-3.5a.9.9,0,0,1,1.1,0,.6.6,0,0,1,.2.5.8.8,0,0,1-.3.7c-.2.2-.4.4-.6.3s-.3-.3-.5-.5A.8.8,0,0,1,29.9,29.3Zm1.5,3.8a1.5,1.5,0,0,1-1.1.5h-.6a1,1,0,0,1-.4-1.5,1.7,1.7,0,0,1,.7-.6h.2l1.3,1.4C31.6,33,31.6,33,31.5,33.1Z" fill="url(#o)"/></svg>