<svg xmlns="http://www.w3.org/2000/svg" viewBox="0 0 100 100"><title>add_i301</title><rect width="100" height="100" fill="#fff" opacity="0"/><path d="M67.2,49.1h.9V46A5.9,5.9,0,0,1,67.2,49.1Z" fill="#dcb454"/><ellipse cx="44.2" cy="31.5" rx="23.9" ry="11.1" fill="#dcb454"/><path d="M44.2,65.8l4.9-.2a17.1,17.1,0,0,1,3-9,48.8,48.8,0,0,1-7.8.6c-13.2,0-23.9-5-23.9-11.1v8.6C20.3,60.8,31,65.8,44.2,65.8Z" fill="#dcb454"/><path d="M44.2,54.2a46.9,46.9,0,0,0,11.2-1.3,17.1,17.1,0,0,1,8.8-3.7c2.5-1.8,3.9-3.9,3.9-6.1V34.4c0,6.2-10.7,11.1-23.9,11.1s-23.9-5-23.9-11.1V43C20.3,49.2,31,54.2,44.2,54.2Z" fill="#dcb454"/><path d="M49.2,68.5l-5,.2c-13.2,0-23.9-5-23.9-11.1v8.6c0,6.2,10.7,11.1,23.9,11.1a48.7,48.7,0,0,0,8.4-.7A17,17,0,0,1,49.2,68.5Z" fill="#dcb454"/><path d="M66.2,52.8A13.5,13.5,0,1,0,79.7,66.2,13.5,13.5,0,0,0,66.2,52.8Zm7,15.8H68.5v4.6H63.9V68.5H59.3V63.9h4.6V59.3h4.6v4.6h4.6Z" fill="#dcb454"/></svg>