<svg xmlns="http://www.w3.org/2000/svg" xmlns:xlink="http://www.w3.org/1999/xlink" viewBox="0 0 120 120"><defs><linearGradient id="a" x1="34.03" y1="28.37" x2="34.03" y2="96.48" gradientUnits="userSpaceOnUse"><stop offset="0" stop-color="#fff2c4"/><stop offset="0.45" stop-color="#ffe489"/><stop offset="1" stop-color="#bf9e30"/></linearGradient><linearGradient id="b" x1="76.84" y1="28.35" x2="76.84" y2="96.47" xlink:href="#a"/><linearGradient id="c" x1="98.42" y1="28.35" x2="98.42" y2="96.47" xlink:href="#a"/><linearGradient id="d" x1="88.99" y1="28.35" x2="88.99" y2="96.47" xlink:href="#a"/><linearGradient id="e" x1="101.56" y1="28.35" x2="101.56" y2="96.47" xlink:href="#a"/></defs><title>cre_i2102</title><rect width="120" height="120" fill="#fff" opacity="0"/><path d="M50.3,71a7.8,7.8,0,0,1-4.2-.6c-1.2-1.4-2-3.6-2.5-6.4a18.3,18.3,0,0,0,3.5-6.7,5,5,0,0,0,2.1-2.7,14.1,14.1,0,0,0,.7-5.1v-.7l-.5-.4-.6-.4c1-8-.4-13.4-4.3-16.4-5.8-4.4-16.6-4.4-22.3.5-3.7,3.2-4.6,7.2-3.5,16.1l-.3.2-.5.4v.7a13.9,13.9,0,0,0,.7,5.2,4.9,4.9,0,0,0,2.2,2.7,18.3,18.3,0,0,0,3.9,7.1,14.7,14.7,0,0,1-1.9,5.3,4.9,4.9,0,0,1-4.6,1.7H11.5C4.8,77.5,3.1,89.1,2.7,97H65.4c.2-8.8-3.4-20.7-8.7-26Z" fill="url(#a)"/><path d="M75.1,88.7V52.4a7.3,7.3,0,0,1,7.3-7.3H93.6c-.9-5.8-2.6-11.1-4.7-12.7s-4.9-3.2-8.9-1.5c-4.6-3.7-11.6-1.1-14.1,2.1-8.9,11.5-1.8,28.7-5.7,33,3.9,3.6,10.6,2,10.6,2.1a7.6,7.6,0,0,1-.3,2.1c-2.7.1-5.2.3-7.2.5,3.2,4.9,7.1,16.1,7.6,25.1h10A7.3,7.3,0,0,1,75.1,88.7Z" fill="url(#b)"/><path d="M114.1,49.7H82.7a3.6,3.6,0,0,0-3.6,3.6V87.8a3.6,3.6,0,0,0,3.6,3.6h31.4a3.6,3.6,0,0,0,3.6-3.6V53.3A3.6,3.6,0,0,0,114.1,49.7Zm-.4,4V87.4H83.1V53.7Z" fill="url(#c)"/><rect x="87.4" y="61.1" width="3.1" height="3.14" fill="url(#d)"/><rect x="93.7" y="61.1" width="15.7" height="3.14" fill="url(#e)"/><rect x="93.7" y="69" width="15.7" height="3.14" fill="url(#e)"/><rect x="93.7" y="76.8" width="15.7" height="3.14" fill="url(#e)"/><rect x="87.4" y="69" width="3.1" height="3.14" fill="url(#d)"/><rect x="87.4" y="76.8" width="3.1" height="3.14" fill="url(#d)"/></svg>