<svg xmlns="http://www.w3.org/2000/svg" xmlns:xlink="http://www.w3.org/1999/xlink" viewBox="0 0 120 120"><defs><linearGradient id="a" x1="34.82" y1="26.74" x2="34.82" y2="96.77" gradientUnits="userSpaceOnUse"><stop offset="0" stop-color="#fff2c4"/><stop offset="0.45" stop-color="#ffe489"/><stop offset="1" stop-color="#bf9e30"/></linearGradient><linearGradient id="b" x1="81.77" y1="26.74" x2="81.77" y2="96.77" xlink:href="#a"/><linearGradient id="c" x1="95.44" y1="26.74" x2="95.44" y2="96.77" xlink:href="#a"/></defs><title>cre_i2101</title><rect width="120" height="120" fill="#fff" opacity="0"/><path d="M51.1,71a7.8,7.8,0,0,1-4.2-.6c-1.2-1.4-2-3.6-2.5-6.4a18.3,18.3,0,0,0,3.5-6.7A5,5,0,0,0,50,54.6a14.1,14.1,0,0,0,.7-5.1v-.7l-.5-.4-.6-.4c1-8-.4-13.4-4.3-16.4-5.8-4.4-16.6-4.4-22.3.5-3.7,3.2-4.6,7.2-3.5,16.1l-.3.2-.5.4v.7a13.9,13.9,0,0,0,.7,5.2,4.9,4.9,0,0,0,2.2,2.7,18.3,18.3,0,0,0,3.9,7.1,14.7,14.7,0,0,1-1.9,5.3,4.9,4.9,0,0,1-4.6,1.7H12.3C5.6,77.5,3.8,89.1,3.5,97H66.2c.2-8.8-3.4-20.7-8.7-26Z" fill="url(#a)"/><path d="M86.8,90.7v-6H80.6a2.8,2.8,0,0,1-2.8-2.8V70.2a2.8,2.8,0,0,1,2.8-2.8h6.2V61.2a2.8,2.8,0,0,1,2.8-2.8h6.1a58.7,58.7,0,0,1-.8-7.5h0c-.3-7.6-2.5-16.1-5.3-18.3s-4.9-3.2-8.9-1.5c-4.6-3.7-11.6-1.1-14.1,2.1-8.9,11.5-1.8,28.7-5.7,33,3.9,3.6,10.6,2,10.6,2.1a7.6,7.6,0,0,1-.3,2.1c-2.7.1-5.2.3-7.2.5,3.2,4.9,7.1,16.1,7.6,25.1h30.9a19.7,19.7,0,0,0,.1-2.2H89.8A3,3,0,0,1,86.8,90.7Z" fill="url(#b)"/><polygon points="82.8 72.4 91.8 72.4 91.8 63.5 99 63.5 99 72.4 108 72.4 108 79.7 99 79.7 99 88.7 91.8 88.7 91.8 79.7 82.8 79.7 82.8 72.4" fill-rule="evenodd" fill="url(#c)"/></svg>