<svg xmlns="http://www.w3.org/2000/svg" viewBox="0 0 82 82"><title>fri_i02</title><circle cx="41" cy="41" r="41" fill="#37598c"/><path d="M32.4,47.7V65.5a25.6,25.6,0,0,0,17.7-.2L34.5,49.8A11,11,0,0,1,32.4,47.7Z" fill="#fff"/><path d="M30.2,39.6,17.6,52.2A26,26,0,0,0,30.2,64.6V42.6a9.9,9.9,0,0,1,0-3Z" fill="#fff"/><path d="M34.3,32.4H16.5A25.6,25.6,0,0,0,16.7,50L32.2,34.5A11,11,0,0,1,34.3,32.4Z" fill="#fff"/><path d="M42.4,30.2,29.8,17.6A26,26,0,0,0,17.4,30.2h25Z" fill="#fff"/><path d="M49.6,34.3V16.6a25.6,25.6,0,0,0-17.7.1L47.5,32.2A11,11,0,0,1,49.6,34.3Z" fill="#fff"/><path d="M51.8,42.4,64.4,29.9A26,26,0,0,0,51.8,17.4V39.4a9.9,9.9,0,0,1,0,3Z" fill="#fff"/><path d="M47.6,49.6H65.4A25.6,25.6,0,0,0,65.3,32L49.8,47.5A11,11,0,0,1,47.6,49.6Z" fill="#fff"/><path d="M39.6,51.8,52.1,64.4A26,26,0,0,0,64.5,51.9h-25Z" fill="#fff"/></svg>