<svg xmlns="http://www.w3.org/2000/svg" xmlns:xlink="http://www.w3.org/1999/xlink" viewBox="0 0 37.3 28.3"><defs><linearGradient id="a" x1="18.63" y1="-0.53" x2="18.63" y2="28.17" gradientUnits="userSpaceOnUse"><stop offset="0" stop-color="#fff2c4"/><stop offset="0.45" stop-color="#ffe489"/><stop offset="1" stop-color="#bf9e30"/></linearGradient></defs><title>icon_mess</title><path d="M32.8,0H4.4A4.3,4.3,0,0,0,0,4.2V24a4.3,4.3,0,0,0,4.4,4.2H32.8A4.3,4.3,0,0,0,37.3,24V4.2A4.3,4.3,0,0,0,32.8,0Zm0,24.5H4.4c-.4,0-.7-.2-.7-.5V6.9L16.6,17.7a1.5,1.5,0,0,0,.9.3h2.2a1.5,1.5,0,0,0,.9-.3L33.5,6.9V24c0,.3-.3.5-.7.5ZM18.6,14.3,6.1,3.7h25Zm0,0" fill="url(#a)"/></svg>