<svg xmlns="http://www.w3.org/2000/svg" xmlns:xlink="http://www.w3.org/1999/xlink" viewBox="0 0 34 38"><defs><linearGradient id="a" x1="82.89" y1="70.01" x2="82.89" y2="108.7" gradientTransform="translate(-65.9 -68.7)" gradientUnits="userSpaceOnUse"><stop offset="0" stop-color="#ffee7c"/><stop offset="0.45" stop-color="#ffd02b"/><stop offset="1" stop-color="#ffee7c"/></linearGradient></defs><title>icon_pre</title><path d="M9.3,11.6h3.1S4.9,8.2,7.2,5.3c1-1.2,1.8-1.5,3.1-.6l4.2,3.1a1.5,1.5,0,0,0-.3.9v1.5a1.4,1.4,0,0,0,1.4,1.5h2.8a1.4,1.4,0,0,0,1.4-1.5V8.7a1.5,1.5,0,0,0-.3-.9l4.2-3.1c1.3-.9,2.1-.6,3.1.6,2.3,2.9-5.2,6.3-5.2,6.3h3.1c1.5,0,10.6-3.5,3.9-10.4-1.8-1.9-3.4-1.3-4.3-.1l-5,6.5a1.4,1.4,0,0,0-.9-.3H15.6a1.4,1.4,0,0,0-.9.3l-5-6.5C8.7-.1,7.2-.7,5.4,1.2-1.3,8.1,7.8,11.6,9.3,11.6Zm23.3,1.5H1.4A1.4,1.4,0,0,0,0,14.6v4.4a1.4,1.4,0,0,0,1.4,1.5H14.2V14.6h5.7v5.9H32.6A1.4,1.4,0,0,0,34,18.9V14.6A1.4,1.4,0,0,0,32.6,13.1Zm-2.8,8.8H4.2a1.4,1.4,0,0,0-1.4,1.5V36.5A1.4,1.4,0,0,0,4.2,38h9.9V23.3h5.7V38h9.9a1.4,1.4,0,0,0,1.4-1.5V23.3A1.4,1.4,0,0,0,29.7,21.9Z" fill-rule="evenodd" fill="url(#a)"/></svg>