<svg xmlns="http://www.w3.org/2000/svg" viewBox="0 0 82 82"><title>log_i03</title><circle cx="41" cy="41" r="41" fill="#dcb454"/><path d="M41.2,51.5a15.1,15.1,0,0,1,2.3-8,2.9,2.9,0,0,1,.3-1.6,15.2,15.2,0,0,0,2.7-5.5,7.4,7.4,0,0,0,2.6-4.9c.2-3-.5-3.1-.5-3.1,1.1-3.2,1.4-15.3-6.4-13.9C41,12,32.9,10,29.1,16.7A14.3,14.3,0,0,0,28,28.4c-.1.3-.5-.3-.7,1.5a8.9,8.9,0,0,0,1.4,5.2,3.5,3.5,0,0,0,1.3,1,13.5,13.5,0,0,0,2.8,5.8c.5,2.2-1.7,3.4-1.7,3.4-7.3,1.4-14,5.5-14,9.9v3.4c0,4.8,11.1,5.8,21.1,5.8a59.7,59.7,0,0,0,9-.7A15.2,15.2,0,0,1,41.2,51.5Z" fill="#fff"/><path d="M56.4,38.7A12.8,12.8,0,1,0,69.2,51.5,12.8,12.8,0,0,0,56.4,38.7Zm7.1,9.1L56.7,57.9a1.6,1.6,0,0,1-1.3.7,1.9,1.9,0,0,1-1.3-.5l-4-4a1.2,1.2,0,0,1,0-1.7l1-1a1.2,1.2,0,0,1,1.7,0L55,53.6l5.3-7.9a1.2,1.2,0,0,1,1.7-.3l1.2.8a1.2,1.2,0,0,1,.3,1.7Z" fill="#fff"/></svg>