<svg xmlns="http://www.w3.org/2000/svg" xmlns:xlink="http://www.w3.org/1999/xlink" viewBox="0 0 60 60"><defs><linearGradient id="a" y1="30" x2="60" y2="30" gradientUnits="userSpaceOnUse"><stop offset="0" stop-color="#fff"/><stop offset="1"/></linearGradient></defs><title>news_arrR</title><rect width="60" height="60" opacity="0" fill="url(#a)"/><path d="M38,30h0a2.1,2.1,0,0,0-.6-1.5h0l-12-12.3h0a2,2,0,0,0-1.4-.6,2,2,0,0,0-2,2,2.1,2.1,0,0,0,.7,1.6L33.2,30,22.6,40.9h0a2.1,2.1,0,0,0-.6,1.4,2,2,0,0,0,2,2,2,2,0,0,0,1.4-.6h0l12-12.3h0A2.1,2.1,0,0,0,38,30Z" fill="#868686" fill-rule="evenodd"/></svg>