<svg xmlns="http://www.w3.org/2000/svg" xmlns:xlink="http://www.w3.org/1999/xlink" viewBox="0 0 110 110"><defs><linearGradient id="a" x1="57.73" y1="25.8" x2="57.73" y2="82.32" gradientUnits="userSpaceOnUse"><stop offset="0" stop-color="#fff2c4"/><stop offset="0.45" stop-color="#ffe489"/><stop offset="1" stop-color="#bf9e30"/></linearGradient><linearGradient id="b" x1="36.77" y1="25.8" x2="36.77" y2="82.32" xlink:href="#a"/><linearGradient id="c" x1="59.56" y1="25.8" x2="59.56" y2="82.32" xlink:href="#a"/></defs><title>pinfo105</title><rect width="110" height="110" fill="#fff" opacity="0"/><path d="M76,27.5H39.5a1.8,1.8,0,0,0-1.8,1.8v7.1h.9a4.6,4.6,0,1,1,0,9.1h-.9V51h.9a4.6,4.6,0,1,1,0,9.1h-.9v5.5h.9a4.6,4.6,0,1,1,0,9.1h-.9v5.9a1.8,1.8,0,0,0,1.8,1.8H76a1.8,1.8,0,0,0,1.8-1.8V29.4A1.8,1.8,0,0,0,76,27.5ZM70.5,52.9a1.8,1.8,0,0,1-1.8,1.8H50.4a1.8,1.8,0,0,1-1.8-1.8V40.1a1.8,1.8,0,0,1,1.8-1.8H68.7a1.8,1.8,0,0,1,1.8,1.8Z" fill="url(#a)"/><path d="M32.2,41a2.7,2.7,0,0,1,2.7-2.7h3.6a2.7,2.7,0,1,1,0,5.5H34.9A2.7,2.7,0,0,1,32.2,41Zm6.4,11.9H34.9a2.7,2.7,0,0,0,0,5.5h3.6a2.7,2.7,0,1,0,0-5.5Zm0,14.6H34.9a2.7,2.7,0,0,0,0,5.5h3.6a2.7,2.7,0,1,0,0-5.5Z" fill="url(#b)"/><path d="M65,44.7H54.1a1,1,0,1,1,0-2H65a1,1,0,0,1,0,2Z" fill="url(#c)"/><path d="M65,50.2H54.1a1,1,0,0,1,0-2H65a1,1,0,0,1,0,2Z" fill="url(#c)"/></svg>