<svg xmlns="http://www.w3.org/2000/svg" xmlns:xlink="http://www.w3.org/1999/xlink" viewBox="0 0 110 110"><defs><linearGradient id="a" x1="71.6" y1="32.12" x2="71.6" y2="76.62" gradientUnits="userSpaceOnUse"><stop offset="0" stop-color="#fff2c4"/><stop offset="0.45" stop-color="#ffe489"/><stop offset="1" stop-color="#bf9e30"/></linearGradient><linearGradient id="b" x1="36.2" y1="32.12" x2="36.2" y2="76.62" xlink:href="#a"/><linearGradient id="c" x1="90.39" y1="32.12" x2="90.39" y2="76.62" xlink:href="#a"/><linearGradient id="d" x1="19" y1="32.12" x2="19" y2="76.62" xlink:href="#a"/><linearGradient id="e" x1="51.52" y1="32.12" x2="51.52" y2="76.62" xlink:href="#a"/><linearGradient id="f" x1="26.37" y1="32.12" x2="26.37" y2="76.62" xlink:href="#a"/><linearGradient id="g" x1="83.65" y1="32.12" x2="83.65" y2="76.62" xlink:href="#a"/><linearGradient id="h" x1="63.01" y1="32.12" x2="63.01" y2="76.62" xlink:href="#a"/><linearGradient id="i" x1="69.54" y1="32.12" x2="69.54" y2="76.62" xlink:href="#a"/><linearGradient id="j" x1="36.98" y1="32.12" x2="36.98" y2="76.62" xlink:href="#a"/><linearGradient id="k" x1="75.07" y1="32.12" x2="75.07" y2="76.62" xlink:href="#a"/><linearGradient id="l" x1="41.81" y1="32.12" x2="41.81" y2="76.62" xlink:href="#a"/><linearGradient id="m" x1="32.05" y1="32.12" x2="32.05" y2="76.62" xlink:href="#a"/><linearGradient id="n" x1="79.07" y1="32.12" x2="79.07" y2="76.62" xlink:href="#a"/><linearGradient id="o" x1="51.66" y1="32.12" x2="51.66" y2="76.62" xlink:href="#a"/></defs><title>pinfo111</title><rect width="110" height="110" fill="#fff" opacity="0"/><path d="M80,34.6,81.6,39l8.1,22.8V62h-5c-.2,0-.3-.1-.4-.3l-5-14.2h-.1L71.6,62,63.9,47.5c-.1.1-.1.1-.1.2l-5,14.1a.3.3,0,0,1-.3.2h-5c0-.1,0-.2,0-.2,3.2-9,6.3-18,9.6-27h.1l.2.3,2.2,4.4,1.9,3.9L69.8,48l1.7,3.5v.2l.3-.6.8-1.6,2.1-4.2L77,40.6l2.9-5.8v-.2Z" fill="url(#a)"/><path d="M54.3,34.6l-1,2.8L46.5,56.8l-1.8,5V62c-2.9-5.7-5.6-11.5-8.4-17.2-2.8,5.7-5.6,11.5-8.4,17.2L27,59.8c-3-8.3-5.9-16.6-8.8-24.9,0-.1,0-.1-.1-.2s.1-.1.1-.1h5.2v.3L26,42l1.5,4.3.9,2.6h0l.7-1.3,2.1-4,3.3-6.2L36,35l.2-.4h0l.2.2,2,3.8,2.9,5.5L43,47.3l.9,1.8.4-1.2L46.7,41l1.5-4.3.7-1.9v-.2Z" fill="url(#b)"/><path d="M93.6,69.8a3.2,3.2,0,0,0-3.6-2.7,3.2,3.2,0,1,0,3.5,4.1c0-.1,0-.3.1-.4v-1Zm-3.2,2.6a2.1,2.1,0,0,1-2.1-2.1,2.1,2.1,0,1,1,4.2,0A2.1,2.1,0,0,1,90.4,72.4Z" fill="url(#c)"/><path d="M21.4,67.3h-1c-.2,0-.2.1-.2.2s0,1.4,0,2.1,0,.2-.2.2H18c-.2,0-.2-.1-.2-.2s0-1.4,0-2.1,0-.2-.2-.2h-1c-.2,0-.2,0-.2.2s0,1.9,0,2.9,0,1.9,0,2.8,0,.2.2.2h1c.2,0,.2-.1.2-.2s0-1.4,0-2,0-.2.2-.2h2c.2,0,.2,0,.2.2s0,1.4,0,2.1,0,.2.2.2h1.1c.1,0,.2,0,.2-.2q0-2.9,0-5.8C21.6,67.3,21.5,67.3,21.4,67.3Z" fill="url(#d)"/><path d="M51.5,66a4.7,4.7,0,1,0,4.7,4.7A4.7,4.7,0,0,0,51.5,66Zm0,8.7a4,4,0,1,1,4-4A4,4,0,0,1,51.5,74.7Z" fill="url(#e)"/><path d="M26.4,67.1a3.2,3.2,0,1,0,3.2,3.3A3.2,3.2,0,0,0,26.4,67.1Zm0,5.3a2.1,2.1,0,0,1-2.1-2.1,2.1,2.1,0,1,1,4.2,0A2.1,2.1,0,0,1,26.4,72.4Z" fill="url(#f)"/><path d="M85.7,67.3h-.7c-.2,0-.2,0-.2.2s0,1.1,0,1.6v1.5l-3.2-3.3v.2c0,1.9,0,3.7,0,5.6,0,.2,0,.2.2.2h.7c.2,0,.2-.1.2-.2s0-1.8,0-2.7V70l3.2,3.3h0q0-2.9,0-5.8C85.8,67.3,85.8,67.3,85.7,67.3Z" fill="url(#g)"/><path d="M65.8,72l-.6-.4H65a2.1,2.1,0,0,1-1.8.8,2.1,2.1,0,0,1-1.9-2.7,2.1,2.1,0,0,1,1.6-1.4,2,2,0,0,1,2,.7h.2l.6-.5c.1-.1.1-.2,0-.3a3.2,3.2,0,0,0-2.5-1.2h-.4a3.2,3.2,0,1,0,3.1,5.1C66,72.1,66,72.1,65.8,72Z" fill="url(#h)"/><path d="M66.6,73.4h1.3l.5-1.1h2l.3.2.5,1.1c0,.1.1.2.2.2h1.1l-3-6.1Zm3.5-2.5H69l.5-1.1Z" fill="url(#i)"/><path d="M38.4,72.3H36.6c-.1,0-.2,0-.2-.2s0-.7,0-1,0-.2.2-.2h1.3c.1,0,.2,0,.2-.2s0-.5,0-.8,0-.2-.2-.2H36.7c-.2,0-.3,0-.2-.2a9.7,9.7,0,0,0,0-1c0-.2,0-.2.2-.2h1.8c.1,0,.2,0,.2-.2s0-.5,0-.8-.1-.2-.2-.2H35.5c-.2,0-.2,0-.2.2s0,1.9,0,2.8,0,1.9,0,2.9,0,.2.1.2h3c.1,0,.1,0,.1-.1s0-.5,0-.8S38.6,72.3,38.4,72.3Z" fill="url(#j)"/><path d="M75.4,69.7l-.6-.2a.6.6,0,0,1-.3-.6.6.6,0,0,1,.5-.5.8.8,0,0,1,.7.3H76l.7-.4c.1-.1.1-.1,0-.2a1.8,1.8,0,0,0-1.6-.8H75a1.7,1.7,0,0,0-1.6,1.9,1.8,1.8,0,0,0,1.2,1.4l.8.3a.7.7,0,0,1,.5.7.7.7,0,0,1-.7.6.8.8,0,0,1-.9-.6c0-.1-.1-.2-.2-.1h-.7c-.2,0-.2.1-.2.2a2,2,0,0,0,2.2,1.5A1.8,1.8,0,0,0,76.9,71,2,2,0,0,0,75.4,69.7Z" fill="url(#k)"/><path d="M43.2,72.3H41.6c-.2,0-.3-.1-.3-.3s0-3,0-4.5,0-.2-.2-.2h-.7c-.2,0-.2,0-.2.2s0,1.9,0,2.8,0,1.9,0,2.8,0,.2.2.2h2.8c.1,0,.2-.1.2-.2s0-.5,0-.8S43.4,72.3,43.2,72.3Z" fill="url(#l)"/><path d="M33.8,67.5c0-.1,0-.2-.1-.2H30.5c-.1,0-.2,0-.2.1s0,.5,0,.8,0,.2.2.2h.8c.2,0,.2.1.2.2s0,1.5,0,2.3,0,1.5,0,2.3,0,.2.2.2h.7c.2,0,.2,0,.2-.2s0-3,0-4.5,0-.2.2-.2h.8c.1,0,.2,0,.2-.2S33.8,67.7,33.8,67.5Z" fill="url(#m)"/><path d="M79.5,67.3h-.8c-.1,0-.2,0-.2.2s0,1.9,0,2.9,0,1.9,0,2.8,0,.2.2.2h.8c.1,0,.2,0,.2-.2q0-2.9,0-5.8C79.6,67.3,79.6,67.3,79.5,67.3Z" fill="url(#n)"/><path d="M53.2,72.1a3.9,3.9,0,0,0,.6-1.8c0-.1,0-.1-.1-.1h-.2c-.2,0-.2,0-.2.2a3.1,3.1,0,0,1-.5,1.5l-1.5-1.6a2.8,2.8,0,0,0,1.1-.8,1.2,1.2,0,0,0-.7-2H51a1.3,1.3,0,0,0-1.1,1.9l.5.7c.1.1.1.1,0,.2l-.5.3a1.6,1.6,0,0,0-.7,1.7,1.5,1.5,0,0,0,1.2,1.2,2.3,2.3,0,0,0,2.3-.6c.1-.1.2-.1.3,0l.4.4h.8l-.9-1A.2.2,0,0,1,53.2,72.1Zm-2.6-4a1.1,1.1,0,0,1,1.3,0,.7.7,0,0,1,.3.6.9.9,0,0,1-.4.8c-.2.2-.5.4-.7.4s-.4-.3-.5-.6A.9.9,0,0,1,50.6,68.1Zm1.8,4.3a1.7,1.7,0,0,1-1.3.5l-.7-.2a1.1,1.1,0,0,1-.4-1.7,1.9,1.9,0,0,1,.8-.6h.2l1.5,1.6C52.5,72.3,52.5,72.4,52.4,72.5Z" fill="url(#o)"/></svg>