<svg xmlns="http://www.w3.org/2000/svg" xmlns:xlink="http://www.w3.org/1999/xlink" viewBox="0 0 110 110"><defs><linearGradient id="a" x1="55" y1="31.06" x2="55" y2="79.07" gradientUnits="userSpaceOnUse"><stop offset="0" stop-color="#fff2c4"/><stop offset="0.45" stop-color="#ffe489"/><stop offset="1" stop-color="#bf9e30"/></linearGradient></defs><title>pinfo112</title><rect width="110" height="110" fill="#fff" opacity="0"/><path d="M31.5,78.5H52.9V57.1H31.5Zm4.3-17.1H48.6V74.2H35.8Zm4.3,8.5h4.3V65.7H40.1Zm25.6,8.5h4.3V74.2H65.7Zm8.5-4.3v4.3h4.3V74.2Zm-8.5-4.3H78.5V57.1H74.2v4.3H69.9V57.1H57.1V78.5h4.3V65.7h4.3ZM31.5,52.9H52.9V31.5H31.5Zm4.3-17.1H48.6V48.6H35.8Zm4.3,8.5h4.3V40.1H40.1ZM78.5,31.5H57.1V52.9H78.5ZM74.2,48.6H61.4V35.8H74.2Zm-4.3-8.5H65.7v4.3h4.3Z" fill-rule="evenodd" fill="url(#a)"/></svg>