<svg xmlns="http://www.w3.org/2000/svg" xmlns:xlink="http://www.w3.org/1999/xlink" viewBox="0 0 73.6 64.4"><defs><linearGradient id="a" x1="36.8" y1="-0.23" x2="36.8" y2="64.48" gradientUnits="userSpaceOnUse"><stop offset="0" stop-color="#00d0ff"/><stop offset="1" stop-color="#00b37a"/></linearGradient></defs><title>pre_ihot2</title><polygon points="0 36 0 64.4 73.6 0 40.8 0 0 36" fill="url(#a)"/><polygon points="73.6 0 40.8 0 0 36 41.6 1.5 73.1 0.4 73.6 0" fill="#5cffcf"/><path d="M7.1,40.6a2.1,2.1,0,0,1-3-.1L2.8,39a2,2,0,0,1,.3-2.9l8.3-7.1a2.1,2.1,0,0,1,3,.1l1.3,1.5a2,2,0,0,1-.3,2.9Zm-3-2.2,9.5-8.1-.2-.3a.8.8,0,0,0-1.1,0L4,37.1a.7.7,0,0,0-.1,1Zm.6,5.3L18.8,31.6l.8.9-7.3,6.2,4.1,4.6.7-.7.9.9-.8.8,1,1.1-1.1.9-.9-1-5.2,5.2-.9-.9.8-.8L6.5,43.7l-1,.9Zm9.9-11.1a.7.7,0,0,0,.1-1.1l-.3-.3L4.9,39.3l.3.3a.8.8,0,0,0,1.1,0ZM8.5,43.9l3.8-3.2-.9-1.1L7.5,42.8Zm1.7,2L14,42.6l-.9-1L9.3,44.8Zm1.8,2,3.5-3.5-.7-.7-3.8,3.2Zm3.7-8.8,3.7-.2a10.3,10.3,0,0,0-.4-3.2l-4.2,3.5-.8-.9,5.6-4.8a13.5,13.5,0,0,1,1.1,5.3l4.1-.2v1.3l-4.2.2a18.2,18.2,0,0,1-1.1,4.2L18.3,44a18,18,0,0,0,1-3.8l-3.7.2Z" fill="#fff"/><path d="M29.6,23.9a24.8,24.8,0,0,1-.1,5.3A25.7,25.7,0,0,0,35,30l-.2,1.3a27.8,27.8,0,0,1-5.5-.8,26,26,0,0,1-1.9,6l-1.2-.4A24.2,24.2,0,0,0,28,30.1a28.3,28.3,0,0,1-6.7-3.1l-2.1,1.8-.8-.9,1.9-1.6-2.8-2.1.9-1,2.9,2.2,3.7-3.2a1,1,0,0,0,.2-1.5l-1.2-1.3,1.1-.9,1.2,1.3a2.3,2.3,0,0,1-.5,3.3l-3.4,2.9a27.7,27.7,0,0,0,5.8,2.7,24.7,24.7,0,0,0,0-4.7Zm-1.4-6.2,7.6,8.5-1.1.9-7.6-8.5Zm8,10.7,1.9-1.6a1,1,0,0,0,.1-1.5L28.6,14.3l1.1-.9,9.6,10.9a2.3,2.3,0,0,1-.3,3.4l-1.9,1.6Z" fill="#fff"/><path d="M34.2,10.7v.6l4.7-4,.8.9-3.1,2.7.9,1.1-1.1.9-.9-1.1L33,14V10.9Zm5.9,10.8,3.3-2.8-.6-.9-1.1,1a2.1,2.1,0,0,1-3,0l-2.2-2.5a2.1,2.1,0,0,1,.3-2.9l8.9-7.6a2.2,2.2,0,0,1,3,.1l2.2,2.5a2,2,0,0,1-.4,2.9l-.2.2.7.8,2.6-2.2.8.9L52,13.1l1.9,2.1-1.1.9L50.9,14l-5.8,4.9c.4,1.4-.1,3.1-2.2,5.4l-1-.8A6,6,0,0,0,43.8,20L41,22.4Zm-2.5-6.2L47.8,6.6h0a.8.8,0,0,0-1.1,0l-8.9,7.6a.8.8,0,0,0-.1,1.1ZM39,16.8,49.2,8.2l-.5-.6L38.5,16.2Zm10.8-6.6A.7.7,0,0,0,50,9.1L39.9,17.8a.8.8,0,0,0,1.1,0Zm-8-5.9v.6l4.4-3.7.8.9-3,2.5.9,1.1L44,6.5l-.9-1.1L40.6,7.5V4.4Zm2.8,13.4L50.1,13l-.7-.8L44,16.8Z" fill="#fff"/></svg>