<svg xmlns="http://www.w3.org/2000/svg" viewBox="0 0 110 110"><title>safe_i101</title><rect width="110" height="110" fill="#fff" opacity="0"/><path d="M66,43.7H58.7V41.1c0-4.5-1.3-12.1-9.8-12.1s-9.8,8.4-9.8,12.1v2.7H31.7V41.1c0-11.8,6.7-19.4,17.2-19.4S66,29.3,66,41.1Z" fill="#dcb454"/><path d="M73.4,58.1V53.5A7.4,7.4,0,0,0,66,46.2H31.7a7.4,7.4,0,0,0-7.4,7.4V78a7.4,7.4,0,0,0,7.4,7.4h30A23.8,23.8,0,0,1,73.4,58.1ZM51.3,67.6v5.6a2.5,2.5,0,1,1-4.9,0V67.6a4.9,4.9,0,1,1,4.9,0Z" fill="#dcb454"/><path d="M84.8,61a18.2,18.2,0,1,0,18.2,18.2A18.2,18.2,0,0,0,84.8,61ZM97,79.6A11.7,11.7,0,1,1,80.7,68.9l1-.4v4.2l-.4.2a7.9,7.9,0,1,0,11.8,6.9,7.8,7.8,0,0,0-1.1-4l-2.9,2.9-2.2-11,11,2.2-3.1,3.1A11.6,11.6,0,0,1,97,79.6Z" fill="#dcb454"/></svg>