<svg xmlns="http://www.w3.org/2000/svg" viewBox="0 0 110 110"><title>safe_i102</title><rect width="110" height="110" fill="#fff" opacity="0"/><circle cx="38.8" cy="70" r="3.8" fill="#dcb454"/><path d="M67,36.9a3.8,3.8,0,1,0,5.2,1.5A3.8,3.8,0,0,0,67,36.9Z" fill="#dcb454"/><path d="M28,46.5v-.4l34-18.6,2.6.8a3.6,3.6,0,0,0,.2.7,3.8,3.8,0,0,0,5.2,1.5l.6-.5,2.6.8,5.9,10.8-.8,2.6-.7.2A3.8,3.8,0,0,0,76,46.5H87.3L79.7,32.6h0L71.2,17.1,55.8,25.6h0L30,39.7,14.5,48.2l6.7,12.2V50.9a4.4,4.4,0,0,1,4.4-4.4Z" fill="#dcb454"/><path d="M47.2,40.6a12.4,12.4,0,0,0-5.4,5.9H63a8.7,8.7,0,0,0-.9-2.6C59.5,39,52.8,37.5,47.2,40.6Z" fill="#dcb454"/><path d="M38.5,84.3l-1.9-1.9a3.6,3.6,0,0,0,.1-.7A3.8,3.8,0,0,0,33,77.9h-.7l-1.9-1.9V63.8l1.9-1.9H33a3.8,3.8,0,0,0,3.8-3.8,3.6,3.6,0,0,0-.1-.7l1.9-1.9H77.3l1.1,1.1a23,23,0,0,1,11.8-1.1V50.9H25.6V89H64.7a23.7,23.7,0,0,1-1.6-4.7Z" fill="#dcb454"/><path d="M57.9,59.9c-6.4,0-11.5,4.5-11.5,10s5.2,10,11.5,10a13,13,0,0,0,4.6-.8,23.8,23.8,0,0,1,5.1-14.7A12,12,0,0,0,57.9,59.9Z" fill="#dcb454"/><path d="M86.4,61a18.2,18.2,0,1,0,18.2,18.2A18.2,18.2,0,0,0,86.4,61ZM98.6,79.6A11.7,11.7,0,1,1,82.3,68.9l1-.4v4.2l-.4.2a7.9,7.9,0,1,0,11.8,6.9,7.8,7.8,0,0,0-1.1-4l-2.9,2.9-2.2-11,11,2.2-3.1,3.1A11.6,11.6,0,0,1,98.6,79.6Z" fill="#dcb454"/></svg>