<svg xmlns="http://www.w3.org/2000/svg" xmlns:xlink="http://www.w3.org/1999/xlink" viewBox="0 0 210 210"><defs><linearGradient id="a" x1="140.92" y1="67.11" x2="140.92" y2="154.12" gradientUnits="userSpaceOnUse"><stop offset="0" stop-color="#fff2c4"/><stop offset="0.45" stop-color="#ffe489"/><stop offset="1" stop-color="#bf9e30"/></linearGradient><linearGradient id="b" x1="71.79" y1="67.11" x2="71.79" y2="154.12" xlink:href="#a"/><linearGradient id="c" x1="177.59" y1="67.11" x2="177.59" y2="154.12" xlink:href="#a"/><linearGradient id="d" x1="38.2" y1="67.11" x2="38.2" y2="154.12" xlink:href="#a"/><linearGradient id="e" x1="101.7" y1="67.11" x2="101.7" y2="154.12" xlink:href="#a"/><linearGradient id="f" x1="52.6" y1="67.11" x2="52.6" y2="154.12" xlink:href="#a"/><linearGradient id="g" x1="164.44" y1="67.11" x2="164.44" y2="154.12" xlink:href="#a"/><linearGradient id="h" x1="124.14" y1="67.11" x2="124.14" y2="154.12" xlink:href="#a"/><linearGradient id="i" x1="136.89" y1="67.11" x2="136.89" y2="154.12" xlink:href="#a"/><linearGradient id="j" x1="73.32" y1="67.11" x2="73.32" y2="154.12" xlink:href="#a"/><linearGradient id="k" x1="147.68" y1="67.11" x2="147.68" y2="154.12" xlink:href="#a"/><linearGradient id="l" x1="82.75" y1="67.11" x2="82.75" y2="154.12" xlink:href="#a"/><linearGradient id="m" x1="63.69" y1="67.11" x2="63.69" y2="154.12" xlink:href="#a"/><linearGradient id="n" x1="155.5" y1="67.11" x2="155.5" y2="154.12" xlink:href="#a"/><linearGradient id="o" x1="101.98" y1="67.11" x2="101.98" y2="154.12" xlink:href="#a"/></defs><title>safe_i100</title><path d="M105,3A102,102,0,1,1,3,105,102.1,102.1,0,0,1,105,3m0-3A105,105,0,1,0,210,105,105,105,0,0,0,105,0Z" fill="#c3a96c"/><path d="M157.3,69.1l3.1,8.6,15.8,44.5v.4h-9.7c-.5,0-.6-.2-.8-.6L156,94.4v-.3l-15,28.5-15-28.4c-.2.1-.2.3-.2.4L116,122.2a.6.6,0,0,1-.7.5h-9.7c-.1-.2,0-.3.1-.4,6.3-17.6,12.4-35.2,18.7-52.8v-.2h.1a1.4,1.4,0,0,1,.3.5l4.2,8.5,3.7,7.6,4.5,9.4,3.3,6.8a.9.9,0,0,0,.3.4,7.1,7.1,0,0,0,.5-1.1l1.5-3.1,4-8.3,4.4-9.1L157,69.4l.2-.3Z" fill="url(#a)"/><path d="M107.2,69.1l-1.9,5.4L91.9,112.4l-3.5,9.8v.4c-5.6-11.2-10.9-22.4-16.3-33.7-5.5,11.2-10.8,22.5-16.4,33.7l-1.6-4.3C48,102.1,42.4,85.8,36.6,69.6c0-.1,0-.3-.2-.3s.1-.2.2-.2H46.7a1.1,1.1,0,0,1,.3.5L52,83.5,55,92l1.8,5.1h.1a27.5,27.5,0,0,0,1.4-2.5l4.1-7.7,6.4-12.2,2.6-5a2.2,2.2,0,0,1,.5-.7h.1l.3.4,3.9,7.4,5.7,10.8L85,93.8l1.8,3.5c.3-.8.6-1.6.9-2.4l4.7-13.3,2.9-8.3,1.3-3.8a.9.9,0,0,1,.2-.4Z" fill="url(#b)"/><path d="M183.8,137.8a6.3,6.3,0,0,0-7.1-5.2,6.3,6.3,0,1,0,6.9,8c.1-.3,0-.6.2-.8v-2Zm-6.2,5.1a4.1,4.1,0,0,1-4.1-4.1,4.1,4.1,0,1,1,8.2,0A4.1,4.1,0,0,1,177.6,142.9Z" fill="url(#c)"/><path d="M42.9,132.9h-2c-.3,0-.4.1-.4.4s0,2.8,0,4.1-.1.4-.4.4H36.3c-.3,0-.4-.1-.4-.4s0-2.7,0-4.1-.1-.4-.4-.4h-2c-.3,0-.4.1-.4.4,0,1.9,0,3.7,0,5.6s0,3.7,0,5.6c0,.3.1.4.4.4h2c.4,0,.4-.1.4-.4s0-2.6,0-4,.1-.4.4-.4h3.8c.3,0,.4.1.4.4s0,2.7,0,4.1.1.4.3.3h2.1c.3,0,.3-.1.3-.3q0-5.6,0-11.3C43.3,132.9,43.2,132.9,42.9,132.9Z" fill="url(#d)"/><path d="M101.7,130.3a9.2,9.2,0,1,0,9.1,9.2A9.2,9.2,0,0,0,101.7,130.3Zm-.1,17a7.8,7.8,0,1,1,7.8-7.8A7.8,7.8,0,0,1,101.7,147.3Z" fill="url(#e)"/><path d="M52.6,132.5a6.3,6.3,0,1,0,6.2,6.4A6.3,6.3,0,0,0,52.6,132.5Zm0,10.4a4.1,4.1,0,0,1-4.1-4.1,4.1,4.1,0,1,1,8.2,0A4.1,4.1,0,0,1,52.6,142.9Z" fill="url(#f)"/><path d="M168.4,132.9h-1.4c-.3,0-.5.1-.4.4s0,2.1,0,3.2v2.9l-6.3-6.5v.4c0,3.7,0,7.3,0,11,0,.3.1.4.4.4H162c.4,0,.4-.1.4-.4s0-3.6,0-5.3v-.7l6.3,6.5h0q0-5.7,0-11.4C168.7,133,168.6,132.9,168.4,132.9Z" fill="url(#g)"/><path d="M129.7,142.1l-1.2-.8c-.2-.1-.3-.1-.4.1a4.2,4.2,0,0,1-3.5,1.6,4.1,4.1,0,0,1-3.7-5.3,4,4,0,0,1,3.1-2.8,3.9,3.9,0,0,1,3.9,1.4c.2.2.3.2.5.1l1.2-.9c.3-.2.2-.3,0-.5a6.2,6.2,0,0,0-4.9-2.3h-.8a6.3,6.3,0,1,0,6,10C129.9,142.4,129.9,142.2,129.7,142.1Z" fill="url(#h)"/><path d="M131.1,144.8h2.1a.4.4,0,0,0,.4-.3l1-2.2a.4.4,0,0,1,.4-.3h3.5a.5.5,0,0,1,.5.3l1,2.1c.1.1.1.3.3.3h2.2l-5.9-12Zm6.8-4.8h-2.1l1-2.2Z" fill="url(#i)"/><path d="M76.1,142.6H72.6c-.2,0-.3-.1-.3-.3s0-1.3,0-2,.1-.3.4-.3h2.5c.2,0,.3-.1.3-.3s0-1.1,0-1.6-.1-.3-.3-.3H72.7c-.4,0-.5,0-.5-.4a18.9,18.9,0,0,0,0-1.9c0-.3.1-.4.4-.4h3.6c.3,0,.3-.1.3-.3s0-1,0-1.5-.1-.4-.4-.4H70.5c-.3,0-.4.1-.4.4,0,1.9,0,3.7,0,5.6s0,3.8,0,5.6c0,.2,0,.4.3.4h5.9c.2,0,.3-.1.3-.3s0-1,0-1.5S76.4,142.6,76.1,142.6Z" fill="url(#j)"/><path d="M148.4,137.6l-1.2-.4a1.2,1.2,0,0,1-.6-1.1,1.2,1.2,0,0,1,1-1,1.5,1.5,0,0,1,1.4.5c.1.2.2.2.4.1l1.4-.8c.3-.1.2-.2.1-.4a3.6,3.6,0,0,0-3-1.6h-.3a3.3,3.3,0,0,0-3.1,3.8,3.4,3.4,0,0,0,2.2,2.7l1.6.5a1.4,1.4,0,0,1,.9,1.4,1.4,1.4,0,0,1-1.3,1.2,1.6,1.6,0,0,1-1.8-1.1c-.1-.3-.2-.3-.5-.3l-1.4.2c-.4,0-.4.2-.3.5a3.9,3.9,0,0,0,4.3,2.9,3.5,3.5,0,0,0,3-4.5A3.8,3.8,0,0,0,148.4,137.6Z" fill="url(#k)"/><path d="M85.5,142.6H82.4c-.4,0-.5-.1-.5-.5,0-2.9,0-5.9,0-8.8,0-.3-.1-.4-.4-.4H80.1c-.3,0-.4.1-.4.4,0,1.8,0,3.7,0,5.5s0,3.7,0,5.5c0,.2,0,.4.3.4h5.5c.3,0,.3-.1.3-.3s0-1,0-1.6S85.8,142.6,85.5,142.6Z" fill="url(#l)"/><path d="M67,133.2c0-.2,0-.3-.3-.3H60.6c-.2,0-.3,0-.3.3s0,1,0,1.6.1.3.4.3h1.5c.3,0,.4.1.4.4s0,3,0,4.4,0,3,0,4.5.1.4.4.4h1.3c.4,0,.5-.1.5-.4,0-3,0-5.9,0-8.9,0-.3.1-.4.4-.4h1.6c.3,0,.3-.1.3-.3S67,133.7,67,133.2Z" fill="url(#m)"/><path d="M156.3,132.9h-1.5c-.3,0-.4.1-.4.4,0,1.9,0,3.7,0,5.6s0,3.7,0,5.6c0,.3.1.4.4.4h1.5c.3,0,.3-.1.3-.3q0-5.6,0-11.3C156.6,132.9,156.5,132.9,156.3,132.9Z" fill="url(#n)"/><path d="M105.1,142.3a7.5,7.5,0,0,0,1.2-3.6c0-.2,0-.3-.2-.3h-.4c-.3,0-.4.1-.4.4a6.1,6.1,0,0,1-1,3l-2.9-3.2a5.5,5.5,0,0,0,2.1-1.6,2.4,2.4,0,0,0-1.4-3.8h-1.5a2.5,2.5,0,0,0-2.1,3.7,5.3,5.3,0,0,0,.9,1.3c.2.2.2.3-.1.4l-1,.6a3.2,3.2,0,0,0-1.3,3.3,3,3,0,0,0,2.4,2.4,4.5,4.5,0,0,0,4.4-1.1c.2-.2.3-.2.5,0l.7.9.4.2h1.2l-1.8-1.9A.4.4,0,0,1,105.1,142.3Zm-5.1-7.8a2.1,2.1,0,0,1,2.5,0,1.4,1.4,0,0,1,.5,1.1,1.8,1.8,0,0,1-.8,1.5c-.4.4-.9.8-1.4.8s-.8-.7-1.1-1.1A1.7,1.7,0,0,1,99.9,134.5Zm3.4,8.4a3.4,3.4,0,0,1-2.5,1.1,2.6,2.6,0,0,1-1.4-.3,2.2,2.2,0,0,1-.8-3.3,3.7,3.7,0,0,1,1.5-1.3c.2-.1.3,0,.4.1l2.9,3.2C103.6,142.7,103.5,142.8,103.4,143Z" fill="url(#o)"/></svg>