<svg xmlns="http://www.w3.org/2000/svg" viewBox="0 0 50 50"><title>pre_close_1</title><rect width="50" height="50" opacity="0"/><path d="M33.2,38.2a4.5,4.5,0,0,1-3.3-1.4L25,31.5l-4.9,5.2a4.5,4.5,0,0,1-7.7-2.9,4.4,4.4,0,0,1,1.2-3.2L18.9,25l-5.3-5.7a4.5,4.5,0,1,1,6.5-6.1L25,18.5l4.9-5.2a4.5,4.5,0,1,1,6.5,6.1L31.1,25l5.3,5.7a4.5,4.5,0,0,1-3.3,7.5Z" opacity="0.2"/><path d="M28.4,25,35,18a2.5,2.5,0,1,0-3.6-3.4L25,21.4l-6.4-6.8A2.5,2.5,0,1,0,15,18l6.6,7L15,32a2.5,2.5,0,1,0,3.6,3.4L25,28.6l6.4,6.8A2.5,2.5,0,1,0,35,32Z" fill="#fff" fill-rule="evenodd"/></svg>