<svg xmlns="http://www.w3.org/2000/svg" xmlns:xlink="http://www.w3.org/1999/xlink" viewBox="0 0 52 33"><defs><linearGradient id="a" x1="88.33" y1="3.35" x2="88.33" y2="40.37" gradientTransform="translate(-62.3 -4.3)" gradientUnits="userSpaceOnUse"><stop offset="0" stop-color="#fff2c4"/><stop offset="0.45" stop-color="#ffe489"/><stop offset="1" stop-color="#bf9e30"/></linearGradient></defs><title>mid_i304</title><path d="M50.9,2.2c-8.5,0-13.2,2.2-13.4,2.3a1.1,1.1,0,0,0-.6.7A1.1,1.1,0,0,0,37,6L30.8,3.4c-3.9-1.8-6.4-1.2-9.2,1H12.9v-1a1.1,1.1,0,0,0-.3-.9C10.8.7,3.4.1,1.1,0A1.1,1.1,0,0,0,.3.3a1.1,1.1,0,0,0-.3.8V20.9A1.1,1.1,0,0,0,1.1,22H7.6a1.1,1.1,0,0,0,1-.8l.3-.8.8.8c1,1,2,2.1,2.6,2.7,4,3.4,8.9,7.1,9.8,7.8A8.2,8.2,0,0,0,26,33a3.7,3.7,0,0,0,2.5-.7,3.3,3.3,0,0,0,2.5,0,4.3,4.3,0,0,0,2.3-2.1,4.1,4.1,0,0,0,2.7-.4,3.7,3.7,0,0,0,1.8-1.9,3.6,3.6,0,0,0,3.7-4.2l1.7-1.2.3,1a1.1,1.1,0,0,0,1,.8h6.5A1.1,1.1,0,0,0,52,23.1V3.3A1.1,1.1,0,0,0,50.9,2.2ZM6.8,19.8H2.2V2.3c3.5.3,7.2.9,8.6,1.6C10.2,8.7,7.6,17.2,6.8,19.8Zm32,5.4a1.2,1.2,0,0,1-1.3.3c-.8-.7-4.2-4.2-6.4-6.5a1.1,1.1,0,0,0-1.5,0,1.1,1.1,0,0,0,0,1.6c.5.5,4.5,4.8,6.2,6.3a1.5,1.5,0,0,1-.8.9,1.6,1.6,0,0,1-1.7,0h-.1c-1.3-1.1-4.6-4.6-5.3-5.4a1.1,1.1,0,0,0-1.5-.1,1.1,1.1,0,0,0-.1,1.6s3.2,3.5,5,5.2a2.1,2.1,0,0,1-1.2,1.2,1.1,1.1,0,0,1-1.2-.2h0c-1.5-1.3-4.7-4.7-5.3-5.4a1.1,1.1,0,0,0-1.5-.1,1.1,1.1,0,0,0-.1,1.6c.7.8,2.9,3.1,4.6,4.7H26a6.2,6.2,0,0,1-2.7-.9c-.8-.5-5.5-4.1-9.6-7.6l-2.5-2.5L9.6,18.1c.9-3,2.2-7.7,2.9-11.5h6.6c-1.5,1.5-3.5,4.5-3,6.8a2.7,2.7,0,0,0,1.9,2,5.4,5.4,0,0,0,6.4-2.2,5.4,5.4,0,0,0,1.6-.5l.8-.3c1.2,1.2,2.9,2.6,4.7,4s6.8,5.6,7.6,7.3A1.3,1.3,0,0,1,38.8,25.2Zm1.6-3.7c-1.5-2-4.6-4.6-7.5-7s-3.8-3.1-5-4.3a1.1,1.1,0,0,0-1.1-.3l-1.5.6a3.5,3.5,0,0,1-1.5.4,1.1,1.1,0,0,0-.8.5c-1.5,2.3-3.1,2.1-4.2,1.8s-.4-.3-.4-.4.9-3.2,2.4-4.7c3.5-3.6,5.3-4.5,9.2-2.7s7.3,3,8.4,3.4c1.3,3.1,3,8,4.1,11.4Zm9.4.4H45.2c-1-3.4-4.1-12.3-5.8-15.9A34.8,34.8,0,0,1,49.8,4.4Z" fill-rule="evenodd" fill="url(#a)"/></svg>