<svg xmlns="http://www.w3.org/2000/svg" xmlns:xlink="http://www.w3.org/1999/xlink" viewBox="0 0 35 35"><defs><linearGradient id="a" x1="79.83" y1="5.35" x2="79.83" y2="40.48" gradientTransform="translate(-62.3 -4.3)" gradientUnits="userSpaceOnUse"><stop offset="0" stop-color="#fff2c4"/><stop offset="0.45" stop-color="#ffe489"/><stop offset="1" stop-color="#bf9e30"/></linearGradient></defs><title>mid_i305</title><path d="M0,35H15.9V19.1H0ZM3.2,22.3h9.5v9.5H3.2Zm3.2,6.4H9.5V25.5H6.4ZM25.5,35h3.2V31.8H25.5Zm6.4-3.2V35H35V31.8Zm-6.4-3.2H35V19.1H31.8v3.2H28.6V19.1H19.1V35h3.2V25.5h3.2ZM0,15.9H15.9V0H0ZM3.2,3.2h9.5v9.5H3.2ZM6.4,9.5H9.5V6.4H6.4ZM35,0H19.1V15.9H35ZM31.8,12.7H22.3V3.2h9.5ZM28.6,6.4H25.5V9.5h3.2Z" fill-rule="evenodd" fill="url(#a)"/></svg>